<?xml version="1.0" encoding="UTF-8" standalone="no"?>
<!-- Created with Inkscape (http://www.inkscape.org/) -->

<svg
   version="1.1"
   id="svg981"
   xml:space="preserve"
   width="682.66669"
   height="682.66669"
   viewBox="0 0 682.66669 682.66669"
   xmlns="http://www.w3.org/2000/svg"
   xmlns:svg="http://www.w3.org/2000/svg"><defs
     id="defs985"><clipPath
       clipPathUnits="userSpaceOnUse"
       id="clipPath995"><path
         d="M 0,512 H 512 V 0 H 0 Z"
         id="path993" /></clipPath></defs><g
     id="g987"
     transform="matrix(1.3333333,0,0,-1.3333333,0,682.66667)"><g
       id="g989"><g
         id="g991"
         clip-path="url(#clipPath995)"><g
           id="g997"
           transform="translate(497,256)"><path
             d="m 0,0 c 0,-132.548 -108.452,-241 -241,-241 -132.548,0 -241,108.452 -241,241 0,132.548 108.452,241 241,241 C -108.452,241 0,132.548 0,0 Z"
             style="fill:none;stroke:#000000;stroke-width:30;stroke-linecap:round;stroke-linejoin:round;stroke-miterlimit:10;stroke-dasharray:none;stroke-opacity:1"
             id="path999" /></g><g
           id="g1001"
           transform="translate(136,316)"><path
             d="M 0,0 V -120"
             style="fill:none;stroke:#000000;stroke-width:30;stroke-linecap:round;stroke-linejoin:round;stroke-miterlimit:10;stroke-dasharray:none;stroke-opacity:1"
             id="path1003" /></g><g
           id="g1005"
           transform="translate(247.7427,307.2131)"><path
             d="m 0,0 c -5.429,5.429 -12.929,8.787 -21.213,8.787 -16.568,0 -30,-13.431 -30,-30 0,-16.568 13.431,-30 30,-30 16.568,0 30,-13.431 30,-30 0,-16.568 -13.431,-30 -30,-30 -8.285,0 -15.785,3.358 -21.213,8.787"
             style="fill:none;stroke:#000000;stroke-width:30;stroke-linecap:round;stroke-linejoin:round;stroke-miterlimit:10;stroke-dasharray:none;stroke-opacity:1"
             id="path1007" /></g><g
           id="g1009"
           transform="translate(346.5293,196)"><path
             d="m 0,0 c -16.568,0 -30,13.431 -30,30 v 60 c 0,16.569 13.432,30 30,30 16.569,0 30,-13.431 30,-30 V 30 C 30,13.431 16.569,0 0,0 Z"
             style="fill:none;stroke:#000000;stroke-width:30;stroke-linecap:round;stroke-linejoin:round;stroke-miterlimit:10;stroke-dasharray:none;stroke-opacity:1"
             id="path1011" /></g><g
           id="g1013"
           transform="translate(48.1079,376)"><path
             d="M 0,0 H 415.784"
             style="fill:none;stroke:#000000;stroke-width:30;stroke-linecap:round;stroke-linejoin:round;stroke-miterlimit:10;stroke-dasharray:none;stroke-opacity:1"
             id="path1015" /></g><g
           id="g1017"
           transform="translate(463.8921,136)"><path
             d="M 0,0 H -415.784"
             style="fill:none;stroke:#000000;stroke-width:30;stroke-linecap:round;stroke-linejoin:round;stroke-miterlimit:10;stroke-dasharray:none;stroke-opacity:1"
             id="path1019" /></g><g
           id="g1021"
           transform="translate(178.0405,376)"><path
             d="m 0,0 c 15.562,71.736 44.647,121 77.959,121 33.313,0 62.399,-49.264 77.96,-121"
             style="fill:none;stroke:#000000;stroke-width:30;stroke-linecap:round;stroke-linejoin:round;stroke-miterlimit:10;stroke-dasharray:none;stroke-opacity:1"
             id="path1023" /></g><g
           id="g1025"
           transform="translate(333.9595,136)"><path
             d="m 0,0 c -15.561,-71.736 -44.646,-121 -77.959,-121 -33.313,0 -62.398,49.264 -77.96,121"
             style="fill:none;stroke:#000000;stroke-width:30;stroke-linecap:round;stroke-linejoin:round;stroke-miterlimit:10;stroke-dasharray:none;stroke-opacity:1"
             id="path1027" /></g></g></g></g></svg>
