<?xml version="1.0" encoding="UTF-8"?>
<svg xmlns="http://www.w3.org/2000/svg" xmlns:xlink="http://www.w3.org/1999/xlink" version="1.1" id="Capa_1" x="0px" y="0px" viewBox="0 0 512 512" style="enable-background:new 0 0 512 512;" xml:space="preserve" width="512" height="512">
<g>
	<path style="fill:none;stroke:#000000;stroke-width:15;stroke-linecap:round;stroke-linejoin:round;stroke-miterlimit:10;" d="&#10;&#9;&#9;M100.688,237.805V131.75c0-8.578,6.954-15.531,15.531-15.531h0c8.578,0,15.531,6.954,15.531,15.531v155.313&#10;&#9;&#9;c0,8.578-6.954,15.531-15.531,15.531h0c-8.578,0-15.531-6.954-15.531-15.531v-14.258"/>
	<path style="fill:none;stroke:#000000;stroke-width:15;stroke-linecap:round;stroke-linejoin:round;stroke-miterlimit:10;" d="&#10;&#9;&#9;M254.153,161.473c-3.727-8.768-12.672-14.782-22.937-14.145c-11.602,0.72-21.044,10.163-21.764,21.764&#10;&#9;&#9;c-0.84,13.54,9.892,24.783,23.251,24.783c30.725,0,55.496,25.491,54.319,56.477c-1.07,28.174-24.027,51.131-52.201,52.201&#10;&#9;&#9;c-23.199,0.881-43.318-12.783-51.965-32.6c-4.472-10.248,3.076-21.719,14.258-21.719h0c6.091,0,11.757,3.5,14.139,9.106&#10;&#9;&#9;c3.727,8.768,12.672,14.782,22.937,14.145c11.602-0.72,21.044-10.163,21.764-21.764c0.84-13.54-9.892-24.783-23.251-24.783&#10;&#9;&#9;c-30.725,0-55.496-25.491-54.319-56.477c1.07-28.174,24.027-51.131,52.201-52.201c23.199-0.881,43.318,12.783,51.965,32.6&#10;&#9;&#9;c4.472,10.248-3.076,21.719-14.258,21.719h0C262.202,170.578,256.536,167.078,254.153,161.473z"/>
	<path style="fill:none;stroke:#000000;stroke-width:15;stroke-linecap:round;stroke-linejoin:round;stroke-miterlimit:10;" d="&#10;&#9;&#9;M426.844,175.922v-5.344c0-30.022-24.338-54.359-54.359-54.359h0c-30.022,0-54.359,24.337-54.359,54.359v77.656&#10;&#9;&#9;c0,30.022,24.338,54.359,54.359,54.359h0c30.022,0,54.359-24.338,54.359-54.359v-37.312 M395.781,248.234&#10;&#9;&#9;c0,12.866-10.43,23.297-23.297,23.297s-23.297-10.43-23.297-23.297v-77.656c0-12.866,10.43-23.297,23.297-23.297&#10;&#9;&#9;s23.297,10.43,23.297,23.297V248.234z"/>
	<path style="fill:none;stroke:#000000;stroke-width:15;stroke-linecap:round;stroke-linejoin:round;stroke-miterlimit:10;" d="&#10;&#9;&#9;M155.047,380.25L155.047,380.25c-12.867,0-23.297-10.43-23.297-23.297v0c0-12.866,10.43-23.297,23.297-23.297h0&#10;&#9;&#9;c12.867,0,23.297,10.43,23.297,23.297v0C178.344,369.82,167.913,380.25,155.047,380.25z"/>
	<path style="fill:none;stroke:#000000;stroke-width:15;stroke-linecap:round;stroke-linejoin:round;stroke-miterlimit:10;" d="&#10;&#9;&#9;M178.344,356.953v46.594c0,12.866-10.43,23.297-23.297,23.297h0c-12.867,0-23.297-10.43-23.297-23.297"/>
	<path style="fill:none;stroke:#000000;stroke-width:15;stroke-linecap:round;stroke-linejoin:round;stroke-miterlimit:10;" d="&#10;&#9;&#9;M232.703,426.844L232.703,426.844c-12.867,0-23.297-10.43-23.297-23.297v-46.594c0-12.866,10.43-23.297,23.297-23.297h0&#10;&#9;&#9;c12.867,0,23.297,10.43,23.297,23.297v46.594C256,416.413,245.57,426.844,232.703,426.844z"/>
	<path style="fill:none;stroke:#000000;stroke-width:15;stroke-linecap:round;stroke-linejoin:round;stroke-miterlimit:10;" d="&#10;&#9;&#9;M310.213,426.844L310.213,426.844c-12.867,0-23.297-10.43-23.297-23.297v-46.594c0-12.866,10.43-23.297,23.297-23.297h0&#10;&#9;&#9;c12.867,0,23.297,10.43,23.297,23.297v46.594C333.51,416.413,323.08,426.844,310.213,426.844z"/>
	<path style="fill:none;stroke:#000000;stroke-width:15;stroke-linecap:round;stroke-linejoin:round;stroke-miterlimit:10;" d="&#10;&#9;&#9;M380.25,426.844v-93.188v0c0,8.578-6.954,15.531-15.531,15.531h0"/>
	<path style="fill:none;stroke:#000000;stroke-width:15;stroke-linecap:round;stroke-linejoin:round;stroke-miterlimit:10;" d="&#10;&#9;&#9;M116.216,50.513C156.042,23.369,204.168,7.5,256,7.5c137.243,0,248.5,111.257,248.5,248.5S393.243,504.5,256,504.5&#10;&#9;&#9;S7.5,393.243,7.5,256c0-72.843,31.342-138.366,81.276-183.819"/>
</g>















</svg>
