<?xml version="1.0"?>
<svg xmlns="http://www.w3.org/2000/svg" data-name="Layer 1" id="Layer_1" viewBox="0 0 64 64"><path d="M6,39a4,4,0,1,0,4-4A4,4,0,0,0,6,39Zm4-2a2,2,0,1,1-2,2A2,2,0,0,1,10,37Z"/><path d="M14,44H12a1,1,0,0,0-.89.55L10,46.76,8.89,44.55A1,1,0,0,0,8,44H6a5,5,0,0,0-5,5v4a1,1,0,0,0,1,1H18a1,1,0,0,0,1-1V49A5,5,0,0,0,14,44Zm3,8H3V49a3,3,0,0,1,3-3H7.38l1.73,3.45a1,1,0,0,0,1.78,0L12.62,46H14a3,3,0,0,1,3,3Z"/><path d="M32,44a4,4,0,1,0,4,4A4,4,0,0,0,32,44Zm0,6a2,2,0,1,1,2-2A2,2,0,0,1,32,50Z"/><path d="M36,53H34a1,1,0,0,0-.89.55L32,55.76l-1.11-2.21A1,1,0,0,0,30,53H28a5,5,0,0,0-5,5v4a1,1,0,0,0,1,1H40a1,1,0,0,0,1-1V58A5,5,0,0,0,36,53Zm3,8H25V58a3,3,0,0,1,3-3h1.38l1.73,3.45a1,1,0,0,0,1.78,0L34.62,55H36a3,3,0,0,1,3,3Z"/><path d="M54,43a4,4,0,1,0-4-4A4,4,0,0,0,54,43Zm0-6a2,2,0,1,1-2,2A2,2,0,0,1,54,37Z"/><path d="M58,44H56a1,1,0,0,0-.89.55L54,46.76l-1.11-2.21A1,1,0,0,0,52,44H50a5,5,0,0,0-5,5v4a1,1,0,0,0,1,1H62a1,1,0,0,0,1-1V49A5,5,0,0,0,58,44Zm3,8H47V49a3,3,0,0,1,3-3h1.38l1.73,3.45a1,1,0,0,0,1.78,0L56.62,46H58a3,3,0,0,1,3,3Z"/><path d="M26,38a1,1,0,0,0-1-1H23V31a5,5,0,0,0,5-5v-.3a1.1,1.1,0,0,1,.61-1,2.49,2.49,0,0,0,.28-.15A5,5,0,0,0,31,25v6H29a1,1,0,0,0,0,2h6a1,1,0,0,0,0-2H33V25a5,5,0,0,0,2.11-.48l.28.15a1.1,1.1,0,0,1,.61,1V26a5,5,0,0,0,5,5v6H39a1,1,0,0,0,0,2h6a1,1,0,0,0,0-2H43V31a5,5,0,0,0,5-5v-.3a1.12,1.12,0,0,1,.62-1,4,4,0,0,0,0-7.33,1.1,1.1,0,0,1-.61-1V14.18a3.19,3.19,0,0,0-2-3A1.48,1.48,0,0,0,46,11a4,4,0,0,0-.69-2.18A4,4,0,0,0,38,10.62a1.65,1.65,0,0,1,0-.32V8.18a3.19,3.19,0,0,0-2-3,3.87,3.87,0,0,0-.69-2.4A4,4,0,0,0,32.52,1,4,4,0,0,0,28,5a1.77,1.77,0,0,0,0,.23,3.16,3.16,0,0,0-2,2.95V10.3a2.48,2.48,0,0,1,0,.27,4.15,4.15,0,0,0-.66-1.74A4,4,0,0,0,18,11a1.62,1.62,0,0,0,0,.22,3.32,3.32,0,0,0-1.08.71A3.18,3.18,0,0,0,16,14.18V16.3a1.12,1.12,0,0,1-.62,1,4,4,0,0,0,0,7.33,1.1,1.1,0,0,1,.61,1V26a5,5,0,0,0,5,5v6H19a1,1,0,0,0,0,2h6A1,1,0,0,0,26,38ZM40.07,12.44a1,1,0,0,0,0-.78A2,2,0,0,1,40,11a2,2,0,0,1,2.28-2,1.93,1.93,0,0,1,1.35.91A1.92,1.92,0,0,1,44,11a2,2,0,0,1-.12.65,1,1,0,0,0,.12.92,1,1,0,0,0,.82.42A1.18,1.18,0,0,1,46,14.18V16.3a3.08,3.08,0,0,0,1.8,2.86,2,2,0,0,1,0,3.67A3.1,3.1,0,0,0,46,25.7V26a3,3,0,0,1-3,3V20a1,1,0,0,0-2,0v9a3,3,0,0,1-3-3v-.3a3.13,3.13,0,0,0-1.2-2.49A4.93,4.93,0,0,0,38,20v-.3a1.12,1.12,0,0,1,.61-1,4,4,0,0,0,1.46-6.22Zm-13.87.73A3.11,3.11,0,0,0,28,10.3V8.18A1.18,1.18,0,0,1,29.18,7a1,1,0,0,0,.95-1.33A1.89,1.89,0,0,1,30,5a2,2,0,0,1,.68-1.5A2,2,0,0,1,32,3l.27,0a2,2,0,0,1,1.37.91,1.77,1.77,0,0,1,.23,1.74,1,1,0,0,0,1,1.33A1.18,1.18,0,0,1,36,8.18V10.3a3.11,3.11,0,0,0,1.8,2.87,2,2,0,0,1,0,3.66A3.11,3.11,0,0,0,36,19.7V20a3,3,0,0,1-3,3V17.62l3.45-1.73a1,1,0,0,0-.9-1.78L33,15.38V10a1,1,0,0,0-2,0V23a3,3,0,0,1-3-3v-.3a3.11,3.11,0,0,0-1.8-2.87,2,2,0,0,1,0-3.66ZM22,19a1,1,0,0,0-1,1v9a3,3,0,0,1-3-3v-.3a3.08,3.08,0,0,0-1.8-2.86,2,2,0,0,1,0-3.67A3.1,3.1,0,0,0,18,16.3V14.18a1.13,1.13,0,0,1,.35-.83,1.15,1.15,0,0,1,.83-.35,1,1,0,0,0,.82-.42,1,1,0,0,0,.12-.92A2,2,0,0,1,20,11a2,2,0,0,1,2.28-2,1.93,1.93,0,0,1,1.35.91A1.92,1.92,0,0,1,24,11a2,2,0,0,1-.12.65,1,1,0,0,0,.05.78,4,4,0,0,0,1.46,6.22,1.12,1.12,0,0,1,.61,1V20a4.93,4.93,0,0,0,1.2,3.21A3.13,3.13,0,0,0,26,25.7V26a3,3,0,0,1-3,3V20A1,1,0,0,0,22,19Z"/></svg>
