<svg id="Layer_1" enable-background="new 0 0 510 510" height="512" viewBox="0 0 510 510" width="512" xmlns="http://www.w3.org/2000/svg"><g><path d="m300 149.559c0-26.27-42.672-82.242-45-86.393-2.378 4.238-45 60.088-45 86.393 2.261 59.617 87.748 59.601 90 0zm-45 15c-8.271 0-15-6.729-15-14.982.122-4.585 6.361-17.655 15-32.212 8.635 14.551 14.872 27.615 15 32.206-.007 8.266-6.733 14.988-15 14.988z"/><path d="m472.382 429.581c16.285-24.25 5.374-57.597-22.382-67.441v-62.58h-179v-30.838c67.405-7.486 120-64.793 120-134.162-6.787-178.851-263.241-178.8-270 .002 0 69.367 52.595 126.674 120 134.16v30.838h-181v62.58c-27.751 9.843-38.669 43.188-22.382 67.441-22.46 12.972-37.618 37.23-37.618 64.978v15h150v-15c0-27.748-15.158-52.007-37.618-64.978 16.285-24.25 5.374-57.597-22.382-67.441v-32.58h151v32.241c-28.387 9.317-39.909 43.169-23.382 67.78-22.46 12.972-37.618 37.23-37.618 64.978v15h150v-15c0-27.748-15.158-52.007-37.618-64.978 16.045-23.893 5.725-56.723-21.382-67.072v-32.949h149v32.58c-27.751 9.843-38.669 43.188-22.382 67.441-22.46 12.972-37.618 37.23-37.618 64.978v15h150v-15c0-27.748-15.158-52.006-37.618-64.978zm-321.382-295.022c0-57.898 47.102-105 105-105 139.106 5.278 139.068 204.743-.001 210-57.897 0-104.999-47.102-104.999-105zm-118.43 345c14.179-39.762 70.696-39.737 84.859 0zm27.43-75c0-8.271 6.729-15 15-15 19.872.753 19.867 29.25 0 30-8.271 0-15-6.728-15-15zm152.57 75c14.179-39.762 70.696-39.737 84.859 0zm27.43-75c0-8.271 6.729-15 15-15 19.872.753 19.867 29.25 0 30-8.271 0-15-6.728-15-15zm180 0c0-8.271 6.728-15 15-15 19.872.753 19.867 29.25 0 30-8.272 0-15-6.728-15-15zm-27.43 75c14.179-39.762 70.696-39.737 84.859 0z"/></g></svg>