<?xml version="1.0" encoding="iso-8859-1"?>
<!-- Generator: Adobe Illustrator 19.0.0, SVG Export Plug-In . SVG Version: 6.00 Build 0)  -->
<svg version="1.1" id="Capa_1" xmlns="http://www.w3.org/2000/svg" xmlns:xlink="http://www.w3.org/1999/xlink" x="0px" y="0px"
	 viewBox="0 0 512 512" style="enable-background:new 0 0 512 512;" xml:space="preserve">
<g>
	<g>
		<g>
			<path d="M464,96.003h-67.52L384,44.163c-1.805-7.315-8.469-12.379-16-12.16H144c-7.531-0.219-14.195,4.845-16,12.16l-12.48,51.84
				H48c-26.51,0-48,21.49-48,48v288c0,26.51,21.49,48,48,48h416c26.51,0,48-21.49,48-48v-288C512,117.494,490.51,96.003,464,96.003z
				 M480,432.003c0,8.837-7.163,16-16,16H48c-8.837,0-16-7.163-16-16v-288c0-8.837,7.163-16,16-16h80
				c7.531,0.219,14.195-4.845,16-12.16l12.48-51.84h199.04l12.48,51.84c1.805,7.315,8.469,12.379,16,12.16h80
				c8.837,0,16,7.163,16,16V432.003z"/>
			<rect x="192" y="96.003" width="128" height="32"/>
			<path d="M224,240.003h32c8.837,0,16,7.163,16,16h32c0-26.51-21.49-48-48-48h-32c-26.51,0-48,21.49-48,48c0,26.51,21.49,48,48,48
				h32c8.837,0,16,7.163,16,16s-7.163,16-16,16h-32c-8.837,0-16-7.163-16-16h-32c0,26.51,21.49,48,48,48h32c26.51,0,48-21.49,48-48
				c0-26.51-21.49-48-48-48h-32c-8.837,0-16-7.163-16-16C208,247.167,215.163,240.003,224,240.003z"/>
			<polygon points="64,240.003 96,240.003 96,336.003 64,336.003 64,368.003 160,368.003 160,336.003 128,336.003 128,240.003 
				160,240.003 160,208.003 64,208.003 			"/>
			<path d="M384,208.003c-35.346,0-64,28.654-64,64v32c0,35.346,28.654,64,64,64c35.346,0,64-28.654,64-64v-32
				C448,236.657,419.346,208.003,384,208.003z M416,304.003c0,17.673-14.327,32-32,32c-17.673,0-32-14.327-32-32v-32
				c0-17.673,14.327-32,32-32c17.673,0,32,14.327,32,32V304.003z"/>
		</g>
	</g>
</g>
<g>
</g>
<g>
</g>
<g>
</g>
<g>
</g>
<g>
</g>
<g>
</g>
<g>
</g>
<g>
</g>
<g>
</g>
<g>
</g>
<g>
</g>
<g>
</g>
<g>
</g>
<g>
</g>
<g>
</g>
</svg>
