<svg id="Layer_1" enable-background="new 0 0 512 512" viewBox="0 0 512 512" xmlns="http://www.w3.org/2000/svg"><g><path clip-rule="evenodd" d="m438.431 404.671 29.092 50.389c2.496 4.317-1.632 9.622-6.627 7.904l-27.235-8.828-5.699 27.97c-.995 4.884-7.652 6.137-10.233 1.436l-34.879-60.413-15.76 15.76c-2.147 2.147-5.63 2.147-7.777 0l-14.206-14.206-33.983 58.86c-2.581 4.701-9.237 3.448-10.233-1.436l-5.699-27.97-27.235 8.828c-4.995 1.718-9.124-3.587-6.627-7.904l9.39-16.263h-58.971l-19.032 20.669c-2.176 2.363-5.908 2.356-8.081-.003l-19.03-20.666h-116.379c-3.037 0-5.5-2.463-5.5-5.5v-103.693c0-67.492 46.976-125.46 111.131-140.938-54.796-23.767-68.928-95.646-26.336-138.238 33.223-33.224 87.086-33.224 120.31 0 42.592 42.592 28.461 114.469-26.334 138.238 40.082 9.673 74.284 36.277 93.835 72.492h15.707l27.272-27.272c2.148-2.148 5.63-2.148 7.777 0l27.272 27.272h38.569c3.037 0 5.5 2.463 5.5 5.5v38.57l27.272 27.271c2.147 2.148 2.147 5.63 0 7.777l-27.272 27.271v37.123zm-66.693-81.11-13.989 13.99-3.084-3.084c-2.148-2.148-5.63-2.148-7.777 0-2.148 2.147-2.148 5.63 0 7.777l6.972 6.972c2.148 2.147 5.63 2.147 7.777 0l17.878-17.878c2.148-2.148 2.148-5.63 0-7.777-2.148-2.148-5.63-2.148-7.777 0zm-8.537-32.182c-24.856 0-45.008 20.153-45.008 45.008 0 24.856 20.152 45.009 45.008 45.009s45.008-20.154 45.008-45.009-20.152-45.008-45.008-45.008zm24.048 20.961c-13.28-13.28-34.815-13.28-48.095 0-13.281 13.281-13.28 34.816 0 48.097 13.281 13.281 34.815 13.281 48.095 0s13.28-34.817 0-48.097zm3.618 102.772 29.238 50.642 4.189-20.401c.925-2.883 4.013-4.47 6.896-3.545l19.696 6.384-21.117-36.575h-35.409zm-97.395-153.954h10.219c-6.981-11.653-15.681-22.173-25.745-31.202l-58.257 58.258 11.102 127.277c.148 1.719-.511 3.32-1.662 4.432l-7.25 7.874h55.192l11.312-19.593c-.264-.643-.41-1.348-.41-2.086v-38.57l-27.273-27.272c-2.147-2.147-2.147-5.63 0-7.777l27.272-27.272v-38.569c0-3.037 2.463-5.5 5.5-5.5zm43.617 155.507-5.047-5.047h-32.959l-21.117 36.575 19.696-6.384c3.117-1.005 6.432.917 7.074 4.255l4.012 19.69zm-2.771-144.506h-35.346v35.346h-.001c0 1.407-.537 2.815-1.611 3.888l-24.995 24.995 24.948 24.948c1.023.999 1.658 2.393 1.658 3.935v35.347h35.346v.001c1.407 0 2.815.537 3.889 1.611l24.994 24.994 24.947-24.947c.999-1.023 2.393-1.658 3.935-1.658h35.347v-35.349h.001c0-1.407.537-2.815 1.611-3.889l24.994-24.994-24.948-24.947c-1.023-.999-1.658-2.393-1.658-3.935v-35.347h-35.346v-.001c-1.407 0-2.815-.537-3.888-1.611l-24.995-24.995-24.948 24.948c-.998 1.025-2.392 1.66-3.934 1.66zm-225.975 155.638v-54.148c0-3.037 2.463-5.5 5.5-5.5s5.5 2.463 5.5 5.5v54.148h36.133l-7.473-8.116c-1.086-1.18-1.557-2.707-1.429-4.189l-.01-.001 11.102-127.279-58.253-58.253c-27.514 24.689-44.685 60.331-44.685 99.646v98.191h53.615zm95.73-192.042h-30.793l-15.55 178.282 30.947 33.608 30.947-33.608zm-29.833-11h28.874l-2.492-28.566c-7.943-.71-15.947-.71-23.89.002zm37.551-27.088 6.65 76.24 50.987-50.988c-16.79-12.758-36.45-21.527-57.637-25.252zm-52.877 76.239 6.65-76.238c-21.347 3.755-40.997 12.61-57.634 25.253zm25.724 185.56-.003-.003zm56.417-401.26c-28.926-28.926-75.829-28.926-104.755 0s-28.926 75.83 0 104.756 75.83 28.926 104.756 0c28.925-28.927 28.925-75.83-.001-104.756z" fill-rule="evenodd"/></g></svg>