<?xml version="1.0"?>
<svg xmlns="http://www.w3.org/2000/svg" data-name="Layer 1" id="Layer_1" viewBox="0 0 128 128"><title/><path d="M80.30811,57.47656A3.25887,3.25887,0,0,0,83,54.22168V47.03223a4.55483,4.55483,0,0,0-4.51855-4.58057H72.063a8.26421,8.26421,0,0,0-16.126,0H49.51855A4.55483,4.55483,0,0,0,45,47.03223v7.18945a3.25887,3.25887,0,0,0,2.69189,3.25488,4.48123,4.48123,0,0,1,.001,8.78906A3.25694,3.25694,0,0,0,45,69.52051v5.89844A4.55494,4.55494,0,0,0,49.51855,80H78.48145A4.55494,4.55494,0,0,0,83,75.41895V69.52051a3.25669,3.25669,0,0,0-2.69189-3.25488,4.48111,4.48111,0,0,1,0-8.78906ZM79,70.0752v5.34375A.553.553,0,0,1,78.48145,76H49.51855A.553.553,0,0,1,49,75.41895V70.07617A8.49406,8.49406,0,0,0,49,53.6665V47.03223a.55257.55257,0,0,1,.51855-.58057h7.01611a3.24185,3.24185,0,0,0,3.22656-2.73193,4.275,4.275,0,0,1,8.47754,0,3.24185,3.24185,0,0,0,3.22656,2.73193h7.01611A.55257.55257,0,0,1,79,47.03223V53.6665A8.49342,8.49342,0,0,0,79,70.0752Z"/><path d="M14.74707,62H6a2,2,0,0,0,0,4h8.74707a2,2,0,1,0,0-4Z"/><path d="M64,13.93848a2.0001,2.0001,0,0,0,2-2V2a2,2,0,0,0-4,0v9.93848A2.0001,2.0001,0,0,0,64,13.93848Z"/><path d="M43.71045,16.78418a2.04575,2.04575,0,0,0,2.564,1.19385,2,2,0,0,0,1.19385-2.564L44.12109,6.23242a1.9999,1.9999,0,0,0-3.75781,1.37012Z"/><path d="M28.83852,27.33685a1.96823,1.96823,0,0,0,1.32066-.48627,2.00041,2.00041,0,0,0,.18018-2.82275L24.1543,17.00049a2.00005,2.00005,0,0,0-3.00293,2.64258l6.185,7.02733A2.02222,2.02222,0,0,0,28.83852,27.33685Z"/><path d="M19.26074,41.27246l-8.08105-3.80322a1.99993,1.99993,0,0,0-1.70312,3.61914l8.081,3.80321a2.04144,2.04144,0,0,0,2.66115-.958A1.99984,1.99984,0,0,0,19.26074,41.27246Z"/><path d="M122,62h-8.74707a2,2,0,1,0,0,4H122a2,2,0,0,0,0-4Z"/><path d="M119.48145,38.42725a2.00124,2.00124,0,0,0-2.66113-.958l-8.08105,3.80322a1.99984,1.99984,0,0,0-.95813,2.66087,2.05449,2.05449,0,0,0,2.66126.95827l8.08105-3.80322A1.99984,1.99984,0,0,0,119.48145,38.42725Z"/><path d="M103.8457,17.00049l-6.18506,7.02734a2.00041,2.00041,0,0,0,.18012,2.8227,2.0454,2.0454,0,0,0,2.82281-.18013l6.18506-7.02734a2.00005,2.00005,0,0,0-3.00293-2.64258Z"/><path d="M81.72559,17.978a2.02477,2.02477,0,0,0,2.564-1.19385l3.34717-9.18164a1.9999,1.9999,0,0,0-3.75781-1.37012l-3.34717,9.18164A2,2,0,0,0,81.72559,17.978Z"/><path d="M75,116a2.0001,2.0001,0,0,0-2-2H55.72607a1.72306,1.72306,0,0,1-1.68555-1.53711c-1.04932-8.59863-4.9209-17.44629-11.19678-25.58692-2.49257-3.231-5.3948-6.15579-7.60742-9.59863A32.92508,32.92508,0,0,1,30,59.44336C30,41.00244,45.25244,26,64,26S98,41.00244,98,59.44336a32.95861,32.95861,0,0,1-4.88965,17.28223c-.574.93262-1.1947,1.82843-1.83362,2.71466a20.80839,20.80839,0,0,1,4.00354,1.26764c.42432-.61847.84149-1.24371,1.23682-1.8866A36.95518,36.95518,0,0,0,102,59.44336C102,38.79688,84.95313,22,64,22S26,38.79688,26,59.44336a36.91854,36.91854,0,0,0,5.8711,19.9961c2.27684,3.54308,5.24148,6.55406,7.80468,9.8789,5.83789,7.57227,9.43213,15.74316,10.394,23.62891A5.74448,5.74448,0,0,0,53,117.27716v4.82635A6.03356,6.03356,0,0,0,59.14844,128h9.70313A6.03356,6.03356,0,0,0,75,122.10352Zm-4,6.10352A2.03655,2.03655,0,0,1,68.85156,124H59.14844A2.03655,2.03655,0,0,1,57,122.10352V118H71Z"/><path d="M87,83a17,17,0,1,0,17,17A17.019,17.019,0,0,0,87,83Zm0,30a13,13,0,1,1,13-13A13.01474,13.01474,0,0,1,87,113Z"/><path d="M91.91943,95.31738l-7.543,4.84375-1.625-2.94824a2.00011,2.00011,0,1,0-3.50293,1.93164l2.65771,4.82129a1.99962,1.99962,0,0,0,1.26023.97265,2.04038,2.04038,0,0,0,1.5718-.25585l9.34229-6a1.99971,1.99971,0,1,0-2.16113-3.36523Z"/></svg>
