<svg id="Layer_1" enable-background="new 0 0 512 512" viewBox="0 0 512 512" xmlns="http://www.w3.org/2000/svg"><path d="m503.954 287.816c-4.89-45.693-36.347-82.47-78.096-95.735 16.12-11.036 26.721-29.568 26.721-50.535 0-33.75-27.458-61.208-61.209-61.208s-61.209 27.458-61.209 61.208c0 5.334.689 10.509 1.978 15.444-11.801-8.406-24.926-14.802-38.907-18.896 19.895-12.452 33.162-34.551 33.162-59.701 0-38.815-31.579-70.393-70.393-70.393s-70.393 31.578-70.393 70.393c0 25.15 13.268 47.249 33.162 59.701-13.981 4.094-27.105 10.489-38.906 18.895 1.288-4.935 1.977-10.11 1.977-15.443 0-33.75-27.458-61.208-61.209-61.208-33.75 0-61.208 27.458-61.208 61.208 0 20.966 10.601 39.498 26.719 50.534-41.75 13.265-73.208 50.043-78.097 95.737-.242 2.258.486 4.511 2.004 6.199s3.681 2.652 5.95 2.652l108.842-.001c-.374 5.894.801 11.935 3.636 17.543l8.821 17.453c1.696 3.354 2.254 6.516 1.808 10.248l-2.321 19.418c-1.806 15.107 6.379 29.282 20.366 35.274l11.934 5.11-28.794 61.848c-1.626 3.495-1.18 7.566 1.168 10.63 2.346 3.058 6.159 4.543 9.958 3.882l29.579-5.168 15.09 25.969c1.859 3.192 5.239 5.125 8.897 5.125.16 0 .321-.004.483-.011 3.853-.175 7.257-2.456 8.884-5.95l27.845-59.808 8.601-2.599c3.6-1.088 6.81-1.088 10.407 0l8.603 2.6 27.845 59.805c1.627 3.496 5.03 5.777 8.874 5.951.162.008.324.012.485.012 3.666 0 7.046-1.933 8.909-5.132l15.086-25.962 29.578 5.167c3.796.667 7.611-.823 9.962-3.885 2.345-3.06 2.791-7.131 1.164-10.628l-28.794-61.845 11.935-5.112c13.987-5.99 22.171-20.166 20.365-35.273l-2.32-19.418c-.446-3.732.111-6.894 1.807-10.248l8.822-17.453c2.835-5.608 4.01-11.649 3.636-17.543h108.839c2.27 0 4.433-.964 5.95-2.652s2.246-3.942 2.004-6.199zm-112.584-191.478c24.929 0 45.209 20.28 45.209 45.208 0 24.924-20.273 45.201-45.196 45.208-.004 0-.009 0-.014 0-.003 0-.007 0-.01 0-24.923-.006-45.198-20.284-45.198-45.208 0-24.928 20.28-45.208 45.209-45.208zm-189.762-17.945c0-29.993 24.4-54.393 54.393-54.393s54.393 24.4 54.393 54.393c0 29.98-24.381 54.373-54.357 54.392-.012 0-.024 0-.036 0s-.023 0-.035 0c-29.977-.02-54.358-24.412-54.358-54.392zm54.393 70.393c.012 0 .023-.001.035-.001 36.84.011 70.704 17.175 92.444 46.371-7.687 3.152-15.046 7.163-21.972 12.019-1.687-.352-3.415-.594-5.183-.693l-19.524-1.086c-3.753-.209-6.77-1.307-9.779-3.56l-15.655-11.718c-12.181-9.12-28.551-9.119-40.731 0l-15.656 11.719c-3.009 2.252-6.024 3.35-9.778 3.559l-19.525 1.086c-1.769.098-3.497.341-5.183.693-6.925-4.855-14.286-8.867-21.972-12.019 21.741-29.196 55.605-46.36 92.445-46.371.01 0 .022.001.034.001zm-180.577-7.24c0-24.928 20.28-45.208 45.208-45.208 24.929 0 45.209 20.28 45.209 45.208 0 24.925-20.275 45.203-45.199 45.208-.003 0-.007 0-.011 0s-.008 0-.013 0c-24.921-.007-45.194-20.284-45.194-45.208zm60.125 132.553c-2.129 1.999-3.951 4.209-5.462 6.569l-104.777.001c9.005-44.992 48.514-77.91 95.312-77.914h.011s.007 0 .01 0c17.273.002 33.838 4.449 48.526 12.951-4.688 4.447-8.126 10.255-9.696 16.957l-4.461 19.042c-.856 3.659-2.461 6.438-5.202 9.011zm68.893 207.311-12.413-21.363c-1.684-2.897-4.996-4.434-8.294-3.861l-24.341 4.253 23.294-50.033c.137.195.277.383.411.587l10.703 16.366c6.496 9.932 17.285 15.521 28.629 15.412zm123.824-25.224c-3.3-.573-6.61.964-8.294 3.861l-12.413 21.363-17.993-38.648c.111.001.222.012.333.012 11.224-.001 21.866-5.579 28.299-15.416l10.705-16.367c.133-.204.273-.391.41-.586l23.294 50.033zm40.978-149.193-8.823 17.453c-3.116 6.169-4.233 12.503-3.413 19.364l2.32 19.418c.971 8.12-3.26 15.447-10.777 18.668l-17.977 7.697c-6.354 2.722-11.281 6.856-15.063 12.641l-10.704 16.367c-4.476 6.843-12.429 9.737-20.255 7.371l-18.72-5.657c-6.616-1.998-13.048-1.998-19.664 0l-18.719 5.657c-7.83 2.37-15.779-.526-20.256-7.372l-10.703-16.366c-3.783-5.784-8.711-9.919-15.063-12.64l-17.977-7.698c-7.518-3.221-11.749-10.548-10.778-18.668l2.321-19.418c.82-6.862-.297-13.196-3.415-19.364l-8.821-17.453c-3.689-7.298-2.221-15.631 3.742-21.229l14.26-13.383c5.041-4.731 8.257-10.302 9.831-17.029l4.461-19.041c1.865-7.962 8.347-13.401 16.513-13.855l19.525-1.086c6.901-.385 12.945-2.584 18.478-6.726l15.656-11.719c3.273-2.451 7.025-3.676 10.778-3.676 3.752 0 7.504 1.225 10.777 3.676l15.655 11.719c5.533 4.141 11.577 6.341 18.479 6.726l19.524 1.086c8.166.454 14.647 5.893 16.513 13.855l4.461 19.04c1.576 6.729 4.792 12.299 9.832 17.03l14.259 13.383c5.963 5.598 7.433 13.93 3.743 21.229zm12.669-26.325c-1.511-2.361-3.333-4.571-5.463-6.569l-14.259-13.383c-2.741-2.573-4.346-5.353-5.203-9.013l-4.461-19.04c-1.57-6.702-5.008-12.511-9.696-16.957 14.688-8.502 31.253-12.95 48.527-12.952h.011.01c46.796.005 86.304 32.922 95.311 77.913h-104.777zm-125.913-43.975c-42.087 0-76.327 34.24-76.327 76.327 0 42.088 34.24 76.328 76.327 76.328s76.327-34.24 76.327-76.328c0-42.086-34.24-76.327-76.327-76.327zm0 136.656c-33.265 0-60.327-27.063-60.327-60.328s27.062-60.327 60.327-60.327 60.327 27.062 60.327 60.327-27.062 60.328-60.327 60.328zm35.483-81.436-17.587.034-5.403-16.738c-1.757-5.439-6.777-9.095-12.497-9.095-5.714.003-10.732 3.657-12.488 9.095l-5.403 16.738-17.59-.034c-.008 0-.015 0-.023 0-5.704 0-10.72 3.643-12.484 9.071-1.767 5.437.158 11.341 4.789 14.691l14.249 10.311-5.469 16.718c-1.774 5.432.139 11.339 4.766 14.703 2.309 1.676 5.012 2.513 7.714 2.513 2.712 0 5.424-.844 7.735-2.531l14.208-10.365 14.211 10.365c4.617 3.369 10.827 3.373 15.452.014 4.623-3.36 6.536-9.267 4.76-14.7l-5.467-16.717 14.248-10.311c4.631-3.351 6.557-9.255 4.79-14.691-1.764-5.429-6.779-9.071-12.487-9.071-.008 0-.016 0-.024 0zm-17.606 22.34c-4.639 3.358-6.56 9.271-4.779 14.715l3.353 10.251-8.713-6.355c-2.313-1.688-5.025-2.532-7.737-2.532-2.711 0-5.423.844-7.736 2.532l-8.713 6.355 3.353-10.251c1.78-5.442-.142-11.356-4.782-14.716l-8.736-6.321 10.786.021h.023c5.717 0 10.736-3.653 12.493-9.095l3.313-10.264 3.312 10.26c1.755 5.444 6.773 9.099 12.495 9.099h.023l10.784-.021z"/></svg>