<svg id="&#x421;&#x43B;&#x43E;&#x439;_1" enable-background="new 0 0 512 512" height="512" viewBox="0 0 512 512" width="512" xmlns="http://www.w3.org/2000/svg"><path id="sprout_4" d="m469.336 42.672h-170.75v-42.672h-85.188v42.672h-170.734v298.891h170.734v127.781l42.594 42.656 42.594-42.656v-127.781h170.75zm-234.594-21.328h42.516v21.328h-42.516zm42.516 439.172-21.266 21.297-21.25-21.297v-118.953h42.516zm170.734-140.297h-191.156c-2.047-17.266-.953-34.391 3.344-51.078 1.516-5.891 3.438-11.734 5.734-17.531 12.016 7.625 25.578 11.344 39.047 11.344 21.922 0 43.594-9.828 58-28.547 40.109-52.157 22.359-148.813 22.359-148.813s-93.688 7.344-135.328 56.438c-31.719-16.781-73.281-18.234-86.688-18.234-2.797 0-4.359.063-4.359.063s-4.844 76.25 30.906 112.859c11.125 11.391 25.891 17.109 40.656 17.109 4.156 0 8.313-.453 12.391-1.359-1.219 3.609-2.297 7.234-3.25 10.891-4.859 18.609-6.266 37.672-4.281 56.859h-171.375v-256.22h384zm-120.094-147.735v-.016c3.297-2.281 5.172-6.328 4.469-10.531-.969-5.813-6.469-9.734-12.281-8.766-1.594.266-3.031.875-4.266 1.734h-.016c-1.063.719-26.297 18.234-48.453 49.781-2.516 3.594-4.906 7.234-7.141 10.906-9.969-17.578-9.125-40.188 3.938-57.172 17.047-22.156 48.703-34.938 72.281-41.75 11.266-3.25 21.844-5.5 30.375-7 .719 8.406 1.25 18.891 1.047 30.375-.469 24.781-4.625 59.016-21.813 81.359-9.875 12.844-24.844 20.203-41.078 20.203-10.75 0-20.984-3.25-29.75-9.438 2.781-4.938 5.844-9.828 9.203-14.656 19.923-28.591 43.251-44.872 43.485-45.029zm-95.734 14.141c-2.953-3.375-4.891-5.547-5.109-5.797-1.813-2.031-4.422-3.391-7.359-3.547-5.891-.328-10.922 4.172-11.25 10.047-.172 2.938.875 5.672 2.688 7.703 10.547 11.797 21.984 25.5 29.906 35.875-3.375 1.047-6.906 1.594-10.531 1.594-9.641 0-18.672-3.797-25.406-10.703-11.281-11.547-19.188-31.391-22.875-57.375-.938-6.703-1.5-13.031-1.797-18.578 7.828.625 17.266 1.766 27.078 3.859 11.922 2.547 22.328 6.063 30.938 10.406-3.799 8.5-5.877 17.5-6.283 26.516z"/></svg>