<svg enable-background="new 0 0 512 512" viewBox="0 0 512 512" xmlns="http://www.w3.org/2000/svg"><g id="_x31_8_Best_Employer"><g><path d="m166.777 287.984c0-28.142-22.868-51.039-50.98-51.039-28.142 0-51.036 22.897-51.036 51.039 0 28.111 22.894 50.98 51.036 50.98 28.111 0 50.98-22.868 50.98-50.98zm-92.391 0c0-22.836 18.577-41.413 41.411-41.413 22.803 0 41.354 18.577 41.354 41.413 0 22.803-18.551 41.354-41.354 41.354-22.833.001-41.411-18.551-41.411-41.354z"/><path d="m499.448 453.342c-8.202-50.853-51.612-87.761-103.215-87.761-24.455 0-48.252 8.637-66.996 24.314-6.541 5.448-12.264 11.679-17.224 18.438-16.248-10.27-35.454-16.208-56.014-16.208-20.572 0-39.788 5.946-56.042 16.228-4.94-6.766-10.643-13.004-17.177-18.449-18.697-15.684-42.496-24.323-67.012-24.323-51.603 0-95.011 36.908-103.217 87.789-1.749 11.274 7.155 21.545 18.652 21.545h122.644c-.349 1.657-.76 3.288-1.033 4.977-1.816 11.285 7.08 21.567 18.603 21.567h169.165c11.523 0 20.424-10.282 18.603-21.567-.272-1.689-.684-3.32-1.033-4.977h122.644c11.513.001 20.404-10.278 18.652-21.573zm-343.103 11.948h-125.141c-5.522 0-9.997-4.939-9.144-10.415 7.445-46.162 46.856-79.667 93.709-79.667 22.257 0 43.859 7.837 60.839 22.081 5.879 4.898 11.008 10.509 15.469 16.583-16.609 12.803-29.242 30.556-35.732 51.418zm184.238 26.544h-169.165c-5.499 0-9.993-4.876-9.099-10.408 7.443-46.167 46.842-79.674 93.681-79.674 46.842 0 86.243 33.507 93.683 79.674.887 5.53-3.584 10.408-9.1 10.408zm15.074-26.544c-6.495-20.881-19.146-38.648-35.777-51.454 4.477-6.063 9.642-11.652 15.523-16.552 17.024-14.237 38.626-22.077 60.829-22.077 46.856 0 86.266 33.505 93.707 79.639.864 5.532-3.638 10.444-9.142 10.444z"/><path d="m447.243 287.984c0-28.142-22.871-51.039-50.982-51.039-28.14 0-51.034 22.897-51.034 51.039 0 28.111 22.894 50.98 51.034 50.98 28.111 0 50.982-22.868 50.982-50.98zm-92.39 0c0-22.836 18.575-41.413 41.408-41.413 22.805 0 41.356 18.577 41.356 41.413 0 22.803-18.551 41.354-41.356 41.354-22.833.001-41.408-18.551-41.408-41.354z"/><path d="m204.991 314.528c0 28.111 22.894 50.98 51.036 50.98 28.112 0 50.982-22.868 50.982-50.98 0-28.142-22.871-51.039-50.982-51.039-28.141.001-51.036 22.897-51.036 51.039zm92.393 0c0 22.803-18.551 41.354-41.356 41.354-22.833 0-41.41-18.551-41.41-41.354 0-22.836 18.577-41.413 41.41-41.413 22.805.001 41.356 18.578 41.356 41.413z"/><path d="m334.468 89c0-43.262-35.195-78.459-78.459-78.459-43.262 0-78.459 35.197-78.459 78.459 0 31.194 18.344 58.113 44.771 70.749v64.641c0 1.723.921 3.316 2.416 4.174 1.521.871 3.356.838 4.822-.016l26.473-15.438 26.424 15.435c1.485.87 3.323.874 4.822.019 1.495-.858 2.416-2.449 2.416-4.174v-64.64c26.43-12.635 44.774-39.555 44.774-70.75zm-54.399 127.004-21.607-12.622c-1.504-.879-3.351-.877-4.855-.002l-21.661 12.632v-52.365c15.347 4.959 32.028 5.201 48.122.001v52.356zm-24.06-58.173c-37.956 0-68.833-30.878-68.833-68.831 0-37.956 30.878-68.833 68.833-68.833 37.954 0 68.833 30.878 68.833 68.833 0 37.953-30.88 68.831-68.833 68.831z"/><path d="m292.886 76.14-22.5-3.274-10.058-20.426c-1.626-3.29-7.013-3.29-8.639 0l-10.056 20.427-22.507 3.274c-1.814.266-3.321 1.537-3.885 3.281-.566 1.744-.092 3.657 1.224 4.935l16.298 15.835-3.854 22.424c-.313 1.807.43 3.633 1.915 4.71 1.483 1.076 3.448 1.215 5.069.364l20.114-10.596 20.154 10.599c1.647.862 3.611.696 5.071-.367 1.481-1.079 2.223-2.902 1.913-4.71l-3.854-22.429 16.258-15.835c1.316-1.278 1.786-3.191 1.222-4.933-.562-1.744-2.071-3.013-3.885-3.279zm-22.119 18.918c-1.137 1.107-1.654 2.7-1.387 4.263l2.627 15.308-13.757-7.236c-1.426-.746-3.099-.727-4.484.002l-13.717 7.224 2.63-15.299c.27-1.565-.249-3.161-1.389-4.268l-11.108-10.792 15.344-2.233c1.567-.23 2.926-1.215 3.626-2.637l6.857-13.929 6.858 13.929c.7 1.422 2.059 2.406 3.628 2.637l15.355 2.235z"/></g></g><g id="Layer_1"/></svg>