<?xml version="1.0"?>
<svg xmlns="http://www.w3.org/2000/svg" id="Layer_1" data-name="Layer 1" viewBox="0 0 100 100"><path d="M46.36,41.07l-8.28-8.29a1,1,0,0,0-1.37,0,1,1,0,0,0,0,1.37l9,9a1,1,0,0,0,1.37,0L63.29,26.89a1,1,0,1,0-1.37-1.37Z"/><path d="M76,26.84a3.27,3.27,0,0,1-2.32-5.59,5.37,5.37,0,0,0,0-7.58l-3-3a5.37,5.37,0,0,0-7.58,0,3.27,3.27,0,0,1-5.59-2.32A5.38,5.38,0,0,0,52.11,3H47.88a5.37,5.37,0,0,0-5.36,5.36,3.27,3.27,0,0,1-5.59,2.32,5.37,5.37,0,0,0-7.58,0l-3,3a5.37,5.37,0,0,0,0,7.58A3.27,3.27,0,0,1,24,26.84a5.37,5.37,0,0,0-5.36,5.36v4.23A5.38,5.38,0,0,0,24,41.8a3.27,3.27,0,0,1,2.32,5.59,5.36,5.36,0,0,0,0,7.58l3,3a5.34,5.34,0,0,0,5.45,1.28V96a1,1,0,0,0,1.82.7L50,82,63.38,96.66a1.05,1.05,0,0,0,.77.34,1,1,0,0,0,.38-.07,1.05,1.05,0,0,0,.67-1V59.24a5.13,5.13,0,0,0,1.66.29A5.33,5.33,0,0,0,70.65,58l3-3a5.36,5.36,0,0,0,0-7.58A3.27,3.27,0,0,1,76,41.8a5.38,5.38,0,0,0,5.36-5.37V32.2A5.37,5.37,0,0,0,76,26.84ZM63.11,58.23v35L50.77,79.7a1.06,1.06,0,0,0-1.54,0L36.89,93.26v-35a1.42,1.42,0,0,0,0-.2s.06,0,.08-.07a3.27,3.27,0,0,1,5.59,2.32,5.37,5.37,0,0,0,5.36,5.36h4.23a5.38,5.38,0,0,0,5.37-5.36A3.27,3.27,0,0,1,63.07,58s0,0,.08.07A1.42,1.42,0,0,0,63.11,58.23Zm16.12-21.8A3.28,3.28,0,0,1,76,39.71a5.36,5.36,0,0,0-3.79,9.15,3.29,3.29,0,0,1,0,4.63l-3,3a3.35,3.35,0,0,1-4.63,0,5.36,5.36,0,0,0-9.15,3.8,3.28,3.28,0,0,1-3.28,3.27H47.88a3.28,3.28,0,0,1-3.27-3.27,5.29,5.29,0,0,0-3.31-5,5.49,5.49,0,0,0-2.09-.42,5.31,5.31,0,0,0-3.75,1.58,3.27,3.27,0,0,1-4.63,0l-3-3a3.27,3.27,0,0,1,0-4.63A5.36,5.36,0,0,0,24,39.71a3.28,3.28,0,0,1-3.27-3.28V32.2A3.28,3.28,0,0,1,24,28.93a5.36,5.36,0,0,0,3.79-9.15,3.29,3.29,0,0,1,0-4.63l3-3a3.29,3.29,0,0,1,4.63,0,5.36,5.36,0,0,0,9.15-3.79,3.28,3.28,0,0,1,3.27-3.27h4.23a3.28,3.28,0,0,1,3.28,3.27,5.36,5.36,0,0,0,9.15,3.79,3.37,3.37,0,0,1,4.63,0l3,3a3.29,3.29,0,0,1,0,4.63A5.36,5.36,0,0,0,76,28.93a3.28,3.28,0,0,1,3.27,3.27Z"/><path d="M50,14.48A19.84,19.84,0,1,0,69.84,34.32,19.86,19.86,0,0,0,50,14.48Zm0,37.59A17.75,17.75,0,1,1,67.75,34.32,17.77,17.77,0,0,1,50,52.07Z"/></svg>
