<svg enable-background="new 0 0 1000 1000" viewBox="0 0 1000 1000" xmlns="http://www.w3.org/2000/svg"><g><g transform="matrix(.1 0 0 -.1 0 512)"><path d="m2770.2 4972.6-47.9-45.9v-4318.2c0-4272.2 0-4316.2 38.3-4354.5 86.1-86.1 214.4-63.1 258.4 47.9 24.9 57.4 28.7 633.6 28.7 4230.1v4163h1952.3 1952.3v-4176.4c0-4088.4 0-4180.3 36.4-4239.6 45.9-74.6 128.2-97.6 208.6-55.5 30.6 15.3 61.3 44 68.9 59.3 5.7 17.2 11.5 1969.6 11.5 4337.3v4306.6l-47.9 45.9-45.9 47.9h-2183.9-2183.9z"/><path d="m3784.6 4021.3c-84.2-47.9-84.2-59.3-86.1-629.7 0-526.4 1.9-549.3 40.2-599.1l38.3-49.8h402c402 0 402 0 447.9 47.9l47.9 45.9v547.4 549.3l-55.5 55.5-55.5 55.5h-371.3c-241.4-1.9-383-9.5-407.9-22.9zm564.7-627.8v-325.4h-162.7-162.7v325.4 325.4h162.7 162.7z"/><path d="m5380.9 3988.8-55.5-55.5v-549.3-547.4l47.9-45.9c45.9-47.9 45.9-47.9 447.9-47.9h402l38.3 49.8c38.3 49.8 40.2 72.7 40.2 599.1-1.9 400-7.7 555.1-24.9 578-51.7 67-103.4 74.6-472.8 74.6h-367.5zm595.3-595.3v-325.4h-162.7-162.7v325.4 325.4h162.7 162.7z"/><path d="m203.4 3049c-109.1-44-103.4 42.1-103.4-1776.2 0-1234.6 5.7-1682.5 23-1713.1 53.6-103.4 178-122.5 254.6-40.2l47.9 51.7v1584.8 1586.7h934.1 936l40.2 44c47.9 49.8 55.5 157 15.3 208.6-13.4 19.1-47.9 42.1-76.6 53.6-65.1 23-2011.7 24.9-2071.1.1z"/><path d="m7706.5 3041.3c-97.6-42.1-118.7-181.8-40.2-256.5 44-42.1 45.9-42.1 976.2-42.1h932.1v-3280.7-3280.7l-118.7 9.6c-112.9 11.5-120.6 15.3-233.5 130.1-88 88-145.5 130.2-231.6 160.8-268 101.4-622.1-1.9-758-220.1-36.4-61.3-45.9-65.1-137.8-65.1-183.8 0-371.3-126.3-444.1-300.5-72.7-176.1-9.6-436.4 135.9-557 141.6-116.8 172.3-120.6 1004.9-114.8 692.9 5.7 759.9 9.6 821.1 42.1 93.8 49.8 187.6 141.6 235.4 231.6l42.1 76.6 5.7 3688.4 3.8 3688.4-45.9 53.6-45.9 53.6-1022.1 3.8c-826.8 3.8-1031.6 0-1079.4-21.1zm1192.4-6875.3c70.8-34.5 145.5-122.5 168.4-199.1 34.5-116.8 143.6-174.2 239.3-124.4 84.2 44 149.3 36.4 212.5-26.8 72.7-72.7 72.7-141.6-1.9-214.4l-55.5-57.4-719.7 5.7-721.6 5.7-36.4 45.9c-51.7 63.2-47.9 164.6 11.5 222 53.6 55.5 111 59.3 208.6 19.1 38.3-17.2 90-24.9 116.7-17.2 55.5 13.4 124.4 91.9 124.4 143.6 0 42.1 86.1 145.5 162.7 191.4 70.9 44.2 203 46.1 291 5.9z"/><path d="m1156.6 2059.4c-13.4-5.7-36.4-34.4-51.7-63.2-23-45.9-28.7-155-28.7-583.8v-530.2l55.5-55.5 55.5-55.5h367.5c380.9 0 457.4 13.4 486.2 86.1 5.8 17.2 11.5 279.5 11.5 581.9v551.3l-44 40.2c-42.1 40.2-59.3 42.1-436.4 40.2-214.4 0-402-5.8-415.4-11.5zm570.4-637.4v-325.4h-162.7-162.7v325.4 325.4h162.7 162.7z"/><path d="m3738.7 2023c-38.3-49.8-40.2-74.6-40.2-593.4 0-296.7 5.7-555.1 11.5-572.3 28.7-72.7 105.3-86.1 486.2-86.1h367.5l55.5 55.5 55.5 55.5v549.3 547.5l-47.9 45.9c-45.9 47.9-45.9 47.9-447.9 47.9h-402zm610.6-601v-325.4h-162.7-162.7v325.4 325.4h162.7 162.7z"/><path d="m5373.3 2024.9-47.9-45.9v-547.4-549.4l55.5-55.5 55.5-55.5h367.5c380.9 0 457.5 13.4 486.2 86.1 5.7 17.2 11.5 275.6 11.5 572.3 0 518.7-1.9 543.6-40.2 593.4l-38.3 49.8h-402c-401.9 0-401.9 0-447.8-47.9zm602.9-602.9v-325.4h-162.7-162.7v325.4 325.4h162.7 162.7z"/><path d="m7989.8 2028.8c-42.1-44-42.1-55.5-42.1-591.5 0-302.4 5.7-562.7 11.5-580 28.7-72.7 105.3-86.1 486.2-86.1h367.5l55.5 55.5 55.5 55.5v530.2c0 553.2-9.6 618.2-86.1 648.9-17.2 5.7-206.7 11.5-419.2 11.5-381 0-388.6 0-428.8-44zm608.6-606.8v-325.4h-162.7-162.7v325.4 325.4h162.7 162.7z"/><path d="m1131.7 64.9c-55.5-55.5-55.5-59.3-55.5-269.9s0-214.4 55.5-269.9c72.7-70.8 157-74.6 222-7.7 40.2 38.3 47.9 65.1 47.9 162.7v114.8h160.8 162.7l5.8-438.3c5.7-434.5 5.7-440.2 51.7-488.1 57.4-61.2 149.3-65.1 220.1-9.6l49.8 38.3v564.8 564.7l-47.9 45.9c-45.9 47.9-47.9 47.9-430.7 47.9h-386.6z"/><path d="m3746.3 72.6-47.9-45.9v-557-557l47.9-45.9c45.9-47.9 47.9-47.9 428.7-47.9 210.5 0 396.2 5.7 413.4 11.5 76.6 30.6 86.1 95.7 86.1 648.9v530.2l-55.5 55.5-55.5 55.5h-386.5c-382.8 0-384.7 0-430.7-47.9zm603-602.9v-325.4h-162.7-162.7v325.4 325.4h162.7 162.7z"/><path d="m5380.9 64.9-55.5-55.5v-530.2c0-553.2 9.6-618.2 86.1-648.9 17.2-5.7 202.9-11.5 413.4-11.5 380.9 0 382.8 0 428.8 47.9l47.9 45.9v557 557l-47.9 45.9c-45.9 47.9-47.9 47.9-430.7 47.9h-386.6zm595.3-595.2v-325.4h-162.7-162.7v325.4 325.4h162.7 162.7z"/><path d="m7995.5 72.6-47.9-45.9v-564.7-564.6l49.8-38.3c47.9-38.3 74.6-40.2 436.4-40.2 271.8 1.9 394.3 7.7 415.3 24.9 68.9 53.6 74.7 97.6 74.7 635.5v530.2l-55.5 55.5-55.5 55.5h-386.6c-382.8 0-384.7 0-430.7-47.9zm602.9-602.9v-325.4h-162.7-162.7v325.4 325.4h162.7 162.7z"/><path d="m808.3-872.9c-306.3-99.6-518.7-507.3-629.8-1207.8-74.6-472.8-97.6-934.1-51.7-1100.6 72.7-271.8 271.8-486.2 535.9-576.1l88.1-30.6v-440.2-440.2l55.5-55.5c70.8-70.8 149.3-72.8 220.1-7.7l49.8 45.9v449.8 447.9l95.7 32.5c237.3 78.5 444.1 287.1 516.8 520.6 47.9 155 49.8 424.9 9.6 824.9-88.1 830.7-298.6 1364.7-593.4 1504.5-80.4 38.3-229.7 55.5-296.6 32.6zm181.8-344.6c111-67 237.3-367.5 313.9-750.3 88.1-440.2 124.4-1004.9 74.7-1173.3-15.3-47.9-61.3-116.8-120.6-178-225.9-231.6-566.6-197.1-750.3 76.6-82.3 122.5-91.9 214.4-67 587.6 49.8 689.1 181.8 1207.8 356 1389.6 91.9 93.8 111 99.5 193.3 47.8z"/><path d="m3487.9-1845.3c-114.8-42.1-155-191.4-70.8-269.9 40.2-38.3 67-42.1 319.6-45.9l277.5-5.7 5.7-769.5 3.8-767.5 61.3-51.7c72.7-61.3 155-55.5 222 21.1l42.1 47.9v765.6 763.7h650.9 650.8v-767.5-767.6l55.5-55.5c68.9-68.9 134-70.8 210.5-5.8l59.3 49.8 3.8 767.5 5.7 769.5 277.5 5.7c252.7 3.8 279.4 7.7 319.6 45.9 63.2 59.3 59.3 166.5-5.7 227.8l-49.8 45.9-1504.4 3.8c-828.6 2-1519.6-1.8-1534.9-7.6z"/><path d="m8062.5-1845.3c-15.3-5.7-47.9-28.7-70.8-49.8-44-38.3-44-42.1-44-597.2 0-530.2 1.9-558.9 38.3-599.1 53.6-57.4 118.7-65.1 501.5-57.4 465.1 7.6 424.9-49.8 432.6 604.8 3.8 281.4 0 539.8-5.7 574.2-7.7 44-30.6 74.6-72.7 99.5-55.5 34.5-95.7 38.3-405.8 36.4-189.7.1-358.1-5.6-373.4-11.4zm526.4-646.9v-325.4l-157-5.7-158.9-5.7v336.9 336.9l158.9-5.7 157-5.7z"/><path d="m4890.9-2869.3c-57.4-65.1-65.1-105.3-36.4-176.1 55.5-132.1 235.4-132.1 290.9 0 45.9 109.1-28.7 218.2-145.5 218.2-47.7 0-82.2-13.4-109-42.1z"/><path d="m2440.9-4174.7c-53.6-45.9-53.6-47.9-53.6-279.4 0-231.6 0-233.5 53.6-279.5 134-114.8 281.4-7.7 281.4 202.9v76.6h2229.9 2231.8l45.9 47.9c68.9 67 67 183.7-1.9 237.3-51.7 40.2-53.6 40.2-2392.6 40.2h-2340.9z"/></g></g></svg>