<svg enable-background="new 0 0 32 32" viewBox="0 0 32 32" xmlns="http://www.w3.org/2000/svg"><g id="Grid" display="none"/><g id="pencil"/><g id="medal"/><g id="apple"/><g id="highlighter"/><g id="magnifying_glass"/><g id="crayon"/><g id="ruler"/><g id="flask"/><g id="backpack"/><g id="diploma"><path d="m25.4 1.575h-18.81c-1.166 0-2.114.949-2.114 2.115v21.17c0 1.166.948 2.115 2.114 2.115h11.195v2.805c0 .207.101.403.269.524.171.123.391.155.604.085l1.993-.736 2.008.737c.068.024.141.037.212.037.134 0 .266-.042.379-.121.173-.122.275-.319.275-.526v-2.805h1.875c1.166 0 2.114-.949 2.114-2.115v-21.17c.001-1.166-.948-2.115-2.114-2.115zm-4.752 23.709c-2.169 0-3.934-1.765-3.934-3.934s1.765-3.934 3.934-3.934 3.934 1.765 3.934 3.934-1.765 3.934-3.934 3.934zm.239 3.55c-.153-.06-.326-.059-.464-.003l-1.788.66v-3.818c.614.287 1.292.46 2.014.46.727 0 1.409-.176 2.026-.467v3.825zm5.778-3.974c0 .697-.567 1.265-1.265 1.265h-1.876v-.977c1.151-.874 1.907-2.244 1.907-3.797 0-2.638-2.146-4.784-4.783-4.784s-4.783 2.146-4.783 4.784c0 1.56.761 2.934 1.92 3.808v.967h-11.195c-.697 0-1.265-.568-1.265-1.265v-21.171c0-.697.567-1.265 1.265-1.265h18.81c.697 0 1.265.568 1.265 1.265z"/><path d="m23.23 5.228h-14.464c-.234 0-.425.19-.425.425s.19.425.425.425h14.464c.234 0 .425-.19.425-.425s-.19-.425-.425-.425z"/><path d="m23.23 9.07h-14.464c-.234 0-.425.19-.425.425s.19.425.425.425h14.464c.234 0 .425-.19.425-.425s-.19-.425-.425-.425z"/><path d="m23.23 12.913h-14.464c-.234 0-.425.19-.425.425s.19.425.425.425h14.464c.234 0 .425-.19.425-.425s-.19-.425-.425-.425z"/><path d="m12.756 20.544h-3.598c-.234 0-.425.19-.425.425s.19.425.425.425h3.598c.234 0 .425-.19.425-.425s-.191-.425-.425-.425z"/></g><g id="trophy"/><g id="blackboard"/><g id="pencil_case"/><g id="book"/><g id="test"/><g id="school_bell"/><g id="table"/><g id="chair"/><g id="alarm_clock"/><g id="glue"/><g id="pen"/><g id="agenda_book"/><g id="bookshelf"/><g id="school_bus"/><g id="desk_lamp"/><g id="projector"/><g id="school"/><g id="eraser"/><g id="laptop"/><g id="locker"/></svg>