<svg clip-rule="evenodd" fill-rule="evenodd" stroke-linejoin="round" stroke-miterlimit="2" viewBox="0 0 32 32" xmlns="http://www.w3.org/2000/svg"><g transform="translate(-48)"><g transform="matrix(1.625 0 0 1.188 -40 -7.25)"><path d="m59.692 26.929h-3.384c-.51 0-.923-.565-.923-1.263v-3.789c0-1.005.291-1.969.811-2.68.451-.617 1.042-1 1.671-1.089-.759-.767-1.252-2-1.252-3.389 0-2.324 1.379-4.211 3.077-4.211 1.146 0 2.147.86 2.676 2.133.474-.406 1.033-.641 1.632-.641.616 0 1.189.248 1.67.675.526-1.292 1.534-2.167 2.69-2.167 1.699 0 3.077 1.887 3.077 4.211 0 1.389-.492 2.622-1.251 3.389.629.089 1.22.472 1.671 1.089.519.711.811 1.675.811 2.68v3.789c0 .698-.413 1.263-.923 1.263h-3.437v.229c0 .698-.414 1.263-.923 1.263h-6.77c-.509 0-.923-.565-.923-1.263zm1.539-8h-3.077c-.571 0-1.119.311-1.523.864-.404.552-.631 1.302-.631 2.084v3.789c0 .233.138.421.308.421h3.384v-2.719c0-1.005.292-1.968.811-2.679.452-.618 1.043-1 1.671-1.09-.174-.176-.335-.378-.479-.6-.151-.046-.307-.07-.464-.07zm.645-5.764c-.41-1.078-1.235-1.815-2.184-1.815-1.358 0-2.461 1.51-2.461 3.369s1.103 3.368 2.461 3.368c.511 0 .986-.213 1.38-.579-.097-.409-.149-.845-.149-1.297 0-1.198.366-2.279.953-3.046zm3.547.297c-.402-.39-.893-.62-1.423-.62-.511 0-.986.214-1.38.579-.192.179-.365.394-.513.638-.355.584-.569 1.334-.569 2.152 0 .225.017.446.048.659.046.317.124.617.23.895.066.172.142.336.228.489.326.585.789 1.019 1.324 1.213.202.073.413.112.632.112.244 0 .479-.049.701-.139.496-.201.927-.611 1.238-1.155.101-.176.189-.366.263-.567.104-.286.18-.595.222-.92.025-.191.038-.387.038-.587 0-.785-.197-1.507-.526-2.08-.146-.255-.319-.48-.513-.669zm2.937 4.625c1.359 0 2.462-1.509 2.462-3.368s-1.103-3.369-2.462-3.369c-.962 0-1.797.758-2.201 1.862.566.763.918 1.825.918 2.999 0 .437-.049.859-.14 1.256.402.39.893.62 1.423.62zm-.052 8h3.437c.17 0 .308-.188.308-.421v-3.789c0-.782-.227-1.532-.631-2.084-.404-.553-.952-.864-1.523-.864h-3.077c-.181 0-.359.031-.531.091-.14.214-.296.408-.465.579.628.09 1.219.472 1.671 1.09.519.711.811 1.674.811 2.679zm-8-2.719v3.79c0 .232.137.421.307.421h6.77c.17 0 .307-.189.307-.421v-3.79c0-.781-.227-1.531-.631-2.084-.403-.552-.951-.863-1.523-.863h-3.076c-.572 0-1.12.311-1.523.863-.404.553-.631 1.303-.631 2.084z"/></g></g></svg>