<svg id="Capa_1" enable-background="new 0 0 510.053 510.053" height="512" viewBox="0 0 510.053 510.053" width="512" xmlns="http://www.w3.org/2000/svg"><g id="XMLID_806_"><path id="XMLID_815_" d="m254.637 68.18c-60.728 0-110.133 49.405-110.133 110.133s49.405 110.133 110.133 110.133 110.133-49.406 110.133-110.133-49.405-110.133-110.133-110.133zm0 190.265c-44.186 0-80.133-35.947-80.133-80.133s35.947-80.133 80.133-80.133 80.133 35.947 80.133 80.133-35.947 80.133-80.133 80.133z"/><path id="XMLID_840_" d="m415.401 255.418c11.243-23.348 17.549-49.504 17.549-77.105 0-98.323-79.991-178.313-178.313-178.313s-178.312 79.99-178.312 178.313c0 27.994 6.492 54.497 18.037 78.096l-59.969 205.586 95.947-22.505 68.8 70.563 44.85-153.754c3.524.209 7.072.327 10.647.327 3.834 0 7.637-.136 11.411-.375l44.863 153.802 68.801-70.563 95.947 22.505zm-230.665 196.887-44.747-45.893-62.403 14.638 38.209-130.989c24.557 30.452 58.901 52.695 98.213 61.891zm-78.411-273.992c0-81.78 66.533-148.313 148.312-148.313s148.313 66.533 148.313 148.313-66.533 148.313-148.313 148.313-148.312-66.533-148.312-148.313zm263.739 228.099-44.746 45.893-29.325-100.53c39.313-9.372 73.614-31.796 98.058-62.423l38.416 131.698z"/><path id="XMLID_843_" d="m239.637 145.646h30v65.333h-30z"/></g></svg>