<?xml version="1.0" encoding="UTF-8" standalone="no"?>
<!-- Created with Inkscape (http://www.inkscape.org/) -->

<svg
   version="1.1"
   id="svg13734"
   xml:space="preserve"
   width="682.66669"
   height="682.66669"
   viewBox="0 0 682.66669 682.66669"
   xmlns="http://www.w3.org/2000/svg"
   xmlns:svg="http://www.w3.org/2000/svg"><defs
     id="defs13738"><clipPath
       clipPathUnits="userSpaceOnUse"
       id="clipPath13748"><path
         d="M 0,512 H 512 V 0 H 0 Z"
         id="path13746" /></clipPath></defs><g
     id="g13740"
     transform="matrix(1.3333333,0,0,-1.3333333,0,682.66667)"><g
       id="g13742"><g
         id="g13744"
         clip-path="url(#clipPath13748)"><g
           id="g13750"
           transform="translate(434.9619,209)"><path
             d="M 0,0 C 27.763,52.119 49.7,116.09 57.002,193.206 10.111,196.312 -26.962,235.323 -26.962,283 h -304 c 0,-47.693 -37.1,-86.716 -84.015,-89.797 C -395.962,-81 -179.962,-189 -179.962,-189 c 0,0 62.866,32.178 124.191,106"
             style="fill:none;stroke:#000000;stroke-width:40;stroke-linecap:round;stroke-linejoin:round;stroke-miterlimit:10;stroke-dasharray:none;stroke-opacity:1"
             id="path13752" /></g><g
           id="g13754"
           transform="translate(164.043,415)"><path
             d="m 0,0 c -7.005,-13.111 -15.773,-25.363 -26.175,-36.427 -9.171,-9.755 -19.339,-18.299 -30.29,-25.532 14.495,-70.887 46.554,-133.385 95.694,-186.359 18.38,-19.815 36.408,-35.177 51.244,-46.388"
             style="fill:none;stroke:#000000;stroke-width:40;stroke-linecap:round;stroke-linejoin:round;stroke-miterlimit:10;stroke-dasharray:none;stroke-opacity:1"
             id="path13756" /></g></g></g></g></svg>
