<svg id="line" height="512" viewBox="0 0 64 64" width="512" xmlns="http://www.w3.org/2000/svg"><path d="m20.5 4h-8.5a8.00917 8.00917 0 0 0 -8 8v8.5a8.00917 8.00917 0 0 0 8 8h15.5a.99974.99974 0 0 0 1-1v-15.5a8.00917 8.00917 0 0 0 -8-8zm6 22.5h-14.5a6.00657 6.00657 0 0 1 -6-6v-8.5a6.00657 6.00657 0 0 1 6-6h8.5a6.00657 6.00657 0 0 1 6 6z"/><path d="m27.5 35.5h-15.5a8.00917 8.00917 0 0 0 -8 8v8.5a8.00917 8.00917 0 0 0 8 8h8.5a8.00917 8.00917 0 0 0 8-8v-15.5a.99974.99974 0 0 0 -1-1zm-1 16.5a6.00657 6.00657 0 0 1 -6 6h-8.5a6.00657 6.00657 0 0 1 -6-6v-8.5a6.00657 6.00657 0 0 1 6-6h14.5z"/><path d="m52 4h-8.5a8.00917 8.00917 0 0 0 -8 8v15.5a.99974.99974 0 0 0 1 1h15.5a8.00917 8.00917 0 0 0 8-8v-8.5a8.00917 8.00917 0 0 0 -8-8zm6 16.5a6.00657 6.00657 0 0 1 -6 6h-14.5v-14.5a6.00657 6.00657 0 0 1 6-6h8.5a6.00657 6.00657 0 0 1 6 6z"/><path d="m52 35.48438h-15.5a.99973.99973 0 0 0 -1 1v15.5a8.00917 8.00917 0 0 0 8 8h8.5a8.00917 8.00917 0 0 0 8-8v-8.5a8.00916 8.00916 0 0 0 -8-8zm6 16.5a6.00657 6.00657 0 0 1 -6 6h-8.5a6.00657 6.00657 0 0 1 -6-6v-14.5h14.5a6.00656 6.00656 0 0 1 6 6z"/><path d="m54.75 15.251-6-.00086v-5.99914a1 1 0 1 0 -2 0v5.9989l-6-.00086a1 1 0 1 0 0 2l6 .00086v5.9991a1 1 0 0 0 2 0v-5.9989l6 .00086a1 1 0 1 0 0-2z"/></svg>