<svg clip-rule="evenodd" fill-rule="evenodd" height="512" image-rendering="optimizeQuality" shape-rendering="geometricPrecision" text-rendering="geometricPrecision" viewBox="0 0 512 512" width="512" xmlns="http://www.w3.org/2000/svg" xmlns:xodm="http://www.corel.com/coreldraw/odm/2003"><g id="Layer_x0020_1"><path d="m256 512c-.76 0-1.52-.17-2.23-.53l-215.78-107.32c-1.7-.85-2.78-2.58-2.78-4.48v-287.34c0-3.7 3.92-6.12 7.23-4.47l215.79 107.32c1.7.85 2.77 2.58 2.77 4.48v287.34c0 2.77-2.25 5-5 5zm-210.79-115.43 205.79 102.36v-276.17l-205.79-102.36z"/><path d="m138.27 408.53c-.76 0-1.52-.18-2.22-.53l-68.07-33.85c-1.7-.84-2.77-2.58-2.77-4.48v-55.63c0-3.7 3.91-6.13 7.23-4.48l68.06 33.86c1.7.84 2.77 2.58 2.77 4.47v55.64c0 2.77-2.25 5-5 5zm-63.06-41.95 58.06 28.88v-44.47l-58.06-28.88z"/><path d="m256 512c-2.74 0-5-2.22-5-5v-287.34c0-1.9 1.08-3.63 2.77-4.48l215.79-107.32c3.31-1.65 7.23.77 7.23 4.47v287.34c0 1.9-1.08 3.63-2.78 4.48l-215.78 107.33c-.71.35-1.47.52-2.23.52zm5-289.24v276.17l205.79-102.36v-276.17z"/><path d="m40.22 117.33c-5.25 0-6.95-7.13-2.24-9.47l215.79-107.33c5.9-2.93 10.35 6.02 4.46 8.95l-215.79 107.33c-.72.36-1.48.52-2.22.52z"/><path d="m471.78 117.33c-.74 0-1.5-.16-2.22-.52l-215.79-107.33c-5.89-2.93-1.44-11.89 4.46-8.95l215.79 107.33c4.71 2.34 3 9.47-2.24 9.47z"/><path d="m373.73 408.53c-2.74 0-5-2.22-5-5v-55.64c0-1.89 1.07-3.63 2.77-4.48l68.07-33.85c3.31-1.65 7.22.78 7.22 4.48v55.63c0 1.9-1.07 3.64-2.77 4.48l-68.07 33.85c-.7.35-1.46.53-2.22.53zm5-57.54v44.47l58.06-28.88v-44.47z"/></g></svg>