<?xml version="1.0" encoding="UTF-8" standalone="no"?>
<!-- Created with Inkscape (http://www.inkscape.org/) -->

<svg
   version="1.1"
   id="svg9"
   xml:space="preserve"
   width="682.66669"
   height="682.66669"
   viewBox="0 0 682.66669 682.66669"
   xmlns="http://www.w3.org/2000/svg"
   xmlns:svg="http://www.w3.org/2000/svg"><defs
     id="defs13"><clipPath
       clipPathUnits="userSpaceOnUse"
       id="clipPath23"><path
         d="M 0,512 H 512 V 0 H 0 Z"
         id="path21" /></clipPath></defs><g
     id="g15"
     transform="matrix(1.3333333,0,0,-1.3333333,0,682.66667)"><g
       id="g17"><g
         id="g19"
         clip-path="url(#clipPath23)"><g
           id="g25"
           transform="translate(186.8203,382.0576)"><path
             d="m 0,0 c 2.326,4.155 4.335,7.744 5.629,9.535 22.057,30.526 46.081,45.733 58.989,53.903 7.693,4.869 11.205,7.092 11.906,11.705 0.357,2.347 -0.322,4.733 -1.864,6.548 -38.842,45.665 -135.176,58.108 -197.343,40.716 -36.153,-10.116 -58.314,-29.381 -62.437,-54.267 l -0.176,-0.776 c -3.72,-16.436 -0.579,-33.173 8.846,-47.128 6.608,-9.783 15.636,-17.201 26.167,-21.668 -2.638,-2.872 -5.137,-5.783 -7.493,-8.73 -19.259,-24.094 -29.025,-50.651 -29.025,-78.933 0,-4.142 3.358,-7.5 7.5,-7.5 4.142,0 7.5,3.358 7.5,7.5 0,24.744 8.627,48.107 25.639,69.439 1.166,1.462 2.373,2.915 3.618,4.359 3.371,-22.198 19.041,-41.55 41.195,-48.582 0.755,-0.24 1.519,-0.354 2.271,-0.354 3.181,0 6.133,2.04 7.146,5.233 1.254,3.948 -0.931,8.165 -4.879,9.417 -20.793,6.601 -33.97,27.683 -31,49.325 11.199,10.15 24.459,19.75 39.655,28.693 10.085,5.936 20.211,11.093 29.794,15.508 7.997,-1.778 24.288,-6.395 32.108,-12.943 1.404,-1.175 3.111,-1.749 4.81,-1.749 2.143,0 4.271,0.914 5.754,2.686 2.659,3.175 2.24,7.906 -0.936,10.564 -5.415,4.534 -12.859,8.062 -19.948,10.683 19.986,7.781 34.136,11.455 34.381,11.518 4.013,1.025 6.434,5.108 5.411,9.121 -1.024,4.014 -5.112,6.439 -9.121,5.413 -1.831,-0.467 -45.349,-11.74 -89.569,-37.702 -2.233,-1.31 -4.426,-2.636 -6.583,-3.975 1.756,10.03 5.505,23.298 13.515,33.944 2.491,3.31 1.827,8.012 -1.483,10.502 -3.309,2.491 -8.012,1.827 -10.501,-1.483 -14.444,-19.196 -17.346,-44.308 -17.928,-53.958 -7.217,-5.233 -13.892,-10.649 -20.007,-16.233 -10.441,2.798 -19.401,9.18 -25.561,18.302 -7.083,10.486 -9.443,23.065 -6.649,35.411 l 0.226,0.993 c 0.036,0.157 0.067,0.316 0.092,0.475 4.095,25.491 34.155,37.537 51.709,42.449 55.093,15.414 139.71,5.191 176.955,-30.76 C 57.741,76.837 57.16,76.47 56.595,76.112 43.815,68.022 17.221,51.189 -6.527,18.321 c -1.802,-2.493 -3.902,-6.244 -6.561,-10.993 -9.285,-16.585 -26.567,-47.455 -51.46,-56.711 -3.882,-1.444 -5.859,-5.762 -4.416,-9.644 1.443,-3.882 5.761,-5.859 9.643,-4.416 C -29.261,-52.266 -10.226,-18.266 0,0"
             style="fill:#000000;fill-opacity:1;fill-rule:nonzero;stroke:none"
             id="path27" /></g><g
           id="g29"
           transform="translate(378.0146,52.2041)"><path
             d="m 0,0 c -39.249,-11.271 -80.054,-7.092 -115.162,9.421 16.237,19.239 30.242,38.804 42.178,57.511 7.757,-3.331 22.021,-7.896 41.941,-7.896 20.568,0 47.172,4.871 78.852,20.994 3.691,1.878 5.161,6.394 3.282,10.086 -1.878,3.692 -6.395,5.16 -10.085,3.282 C 4.213,74.674 -24.498,72.866 -42.105,74.647 c -10.12,1.024 -17.836,3.318 -22.849,5.245 8.993,14.944 16.622,29.128 22.978,41.901 26.352,52.962 36.839,92.725 37.272,94.392 1.043,4.007 -1.36,8.101 -5.367,9.145 -4.007,1.044 -8.103,-1.359 -9.148,-5.367 -0.069,-0.264 -4.76,-18.011 -15.489,-45.091 -5.219,16.436 -13.969,28.585 -14.531,29.356 -2.44,3.342 -7.121,4.072 -10.468,1.637 -3.345,-2.435 -4.084,-7.124 -1.653,-10.473 0.175,-0.242 17.206,-24.017 15.357,-47.126 -2.924,-6.454 -6.112,-13.189 -9.576,-20.139 -10.466,-21.002 -24.473,-45.926 -42.424,-71.691 -5.729,17.972 -19.544,47.897 -52.455,79.392 -2.993,2.864 -7.741,2.76 -10.604,-0.234 -2.863,-2.993 -2.758,-7.74 0.234,-10.604 40.104,-38.377 49.472,-74.266 51.395,-84.332 -6.048,-8.031 -12.483,-16.082 -19.313,-24.063 -25.816,15.202 -47.676,37.495 -62.254,65.45 -27.301,52.354 -24.567,115.209 6.939,164.97 8.958,-35.837 31.373,-68.995 63.444,-93.721 2.092,-1.613 4.88,-2.006 7.336,-1.035 2.457,0.971 4.221,3.163 4.646,5.771 3.32,20.403 9.54,40.772 18.487,60.542 1.707,3.774 0.033,8.218 -3.741,9.926 -3.774,1.708 -8.217,0.033 -9.925,-3.741 -7.644,-16.892 -13.415,-34.217 -17.217,-51.66 -25.219,22.404 -42.552,50.746 -49.27,80.909 -1.164,5.23 -5.325,9.244 -10.6,10.226 -5.278,0.984 -10.615,-1.267 -13.586,-5.733 -36.467,-54.795 -40.227,-125.066 -9.813,-183.39 15.44,-29.608 38.363,-53.394 65.454,-69.936 -13.99,-15.308 -29.495,-30.189 -46.6,-43.977 -3.224,-2.6 -3.731,-7.322 -1.133,-10.547 1.482,-1.838 3.654,-2.794 5.844,-2.794 1.652,0 3.316,0.544 4.703,1.662 18.717,15.088 35.568,31.422 50.665,48.194 24.784,-12.374 52.344,-19.036 80.463,-19.035 16.301,0.001 32.799,2.241 49.044,6.907 3.981,1.143 6.282,5.297 5.138,9.278 C 8.135,-1.158 3.982,1.144 0,0"
             style="fill:#000000;fill-opacity:1;fill-rule:nonzero;stroke:none"
             id="path31" /></g><g
           id="g33"
           transform="translate(504.0806,220.0264)"><path
             d="m 0,0 c -4.89,2.193 -10.588,1.264 -14.515,-2.364 -19.448,-17.963 -44.916,-30.48 -73.042,-36.123 8.486,11.74 15.579,23.874 21.175,36.239 36.785,81.29 -0.846,150.335 -18.731,176.247 -1.573,2.277 -4.269,3.506 -7.019,3.191 -43.526,-4.946 -88.421,-37.668 -120.094,-87.53 -2.221,-3.496 -1.187,-8.131 2.309,-10.352 3.496,-2.223 8.131,-1.189 10.352,2.309 28.155,44.324 66.977,73.916 104.667,80.052 10.174,-15.549 22.223,-39.017 26.998,-68.04 5.032,-30.583 0.945,-60.76 -12.148,-89.692 -7.433,-16.426 -17.76,-32.466 -30.694,-47.677 -1.975,-2.322 -2.348,-5.609 -0.943,-8.315 1.405,-2.706 4.313,-4.294 7.342,-4.013 37.127,3.411 71.464,17.616 97.153,40.118 -2.379,-58.257 -35.31,-111.165 -86.622,-138.734 -3.648,-1.961 -5.017,-6.508 -3.057,-10.156 1.353,-2.52 3.94,-3.952 6.613,-3.952 1.198,0 2.414,0.287 3.543,0.894 57.186,30.725 93.446,90.283 94.63,155.432 C 8.015,-7.094 4.908,-2.201 0,0"
             style="fill:#000000;fill-opacity:1;fill-rule:nonzero;stroke:none"
             id="path35" /></g><g
           id="g37"
           transform="translate(82.5825,46.9966)"><path
             d="m 0,0 c -0.402,6.692 -0.819,13.611 -1.542,20.505 -0.431,4.12 -4.123,7.109 -8.24,6.677 -4.12,-0.432 -7.109,-4.121 -6.677,-8.241 0.688,-6.563 1.094,-13.313 1.487,-19.842 0.609,-10.125 1.192,-19.819 2.736,-28.885 -17.931,7.091 -39.485,25.235 -49.538,47.894 -10.461,23.559 -4.835,44.311 1.728,57.575 0.796,1.609 2.164,2.81 3.851,3.38 1.687,0.571 3.502,0.446 5.112,-0.351 12.507,-6.186 21.285,-15.102 26.836,-27.257 1.722,-3.768 6.172,-5.425 9.938,-3.707 3.768,1.721 5.427,6.171 3.706,9.939 -7.042,15.418 -18.108,26.694 -33.829,34.47 -5.197,2.572 -11.079,2.97 -16.563,1.118 -5.486,-1.854 -9.924,-5.74 -12.496,-10.942 -11.288,-22.812 -11.996,-47.784 -1.992,-70.311 13.879,-31.282 44.99,-53.618 67.219,-58.751 0.78,-0.18 1.563,-0.268 2.338,-0.268 2.718,0 5.332,1.082 7.292,3.085 2.538,2.593 3.52,6.248 2.622,9.79 C 1.456,-24.207 0.749,-12.449 0,0"
             style="fill:#000000;fill-opacity:1;fill-rule:nonzero;stroke:none"
             id="path39" /></g><g
           id="g41"
           transform="translate(413.1372,481.6528)"><path
             d="m 0,0 c 6.686,7.138 17.922,15.351 34.224,15.351 1.031,0 2.085,-0.033 3.157,-0.101 16.127,-1.021 32.106,-9.457 41.663,-18.73 -5.57,-1.266 -11.252,-3 -17.14,-4.798 -22.34,-6.823 -43.44,-13.265 -61.77,4.105 C -1.047,-3.054 -1.108,-1.183 0,0 m -10.181,-15.063 c 12.094,-11.461 25.156,-15.195 38.055,-15.195 13.412,0 26.646,4.041 38.41,7.633 8.622,2.632 16.765,5.12 24.008,5.885 0.005,10e-4 0.009,10e-4 0.014,0.002 3.344,0.36 6.198,2.386 7.633,5.422 1.43,3.023 1.189,6.5 -0.647,9.302 C 87.834,12.402 63.955,28.599 38.331,30.22 19.727,31.4 2.222,24.313 -10.945,10.256 c -6.734,-7.185 -6.39,-18.545 0.764,-25.319"
             style="fill:#000000;fill-opacity:1;fill-rule:nonzero;stroke:none"
             id="path43" /></g><g
           id="g45"
           transform="translate(144.4019,98.0459)"><path
             d="m 0,0 c -0.404,4.109 -4.056,7.121 -8.168,6.734 -4.124,-0.389 -7.151,-4.048 -6.762,-8.172 0.086,-0.917 2.315,-22.677 19.242,-41.273 1.48,-1.626 3.51,-2.452 5.547,-2.452 1.802,0 3.61,0.646 5.047,1.954 3.063,2.789 3.286,7.532 0.498,10.596 C 1.962,-17.846 0.018,-0.177 0,0"
             style="fill:#000000;fill-opacity:1;fill-rule:nonzero;stroke:none"
             id="path47" /></g><g
           id="g49"
           transform="translate(61.5166,238.9868)"><path
             d="m 0,0 c -3.935,1.302 -8.176,-0.829 -9.479,-4.761 -1.302,-3.932 0.83,-8.176 4.761,-9.479 18.814,-6.233 29.12,-20.551 29.334,-20.852 1.456,-2.094 3.789,-3.217 6.162,-3.217 1.471,0 2.956,0.431 4.258,1.33 3.407,2.355 4.26,7.028 1.905,10.435 C 36.418,-25.787 23.846,-7.901 0,0"
             style="fill:#000000;fill-opacity:1;fill-rule:nonzero;stroke:none"
             id="path51" /></g><g
           id="g53"
           transform="translate(504.9263,423.8374)"><path
             d="m 0,0 c -0.913,0.051 -22.716,1.119 -43.602,-12.874 -3.441,-2.306 -4.362,-6.965 -2.057,-10.406 1.447,-2.159 3.82,-3.326 6.238,-3.326 1.435,0 2.885,0.411 4.167,1.27 16.506,11.059 34.132,10.374 34.427,10.359 4.122,-0.218 7.654,2.936 7.889,7.063 C 7.297,-3.779 4.136,-0.235 0,0"
             style="fill:#000000;fill-opacity:1;fill-rule:nonzero;stroke:none"
             id="path55" /></g><g
           id="g57"
           transform="translate(259.3633,365.5273)"><path
             d="m 0,0 c 1.403,-2.355 3.895,-3.663 6.451,-3.663 1.305,0 2.627,0.341 3.83,1.058 21.589,12.861 30.029,33.037 30.377,33.889 1.564,3.824 -0.264,8.178 -4.081,9.757 C 32.762,42.62 28.38,40.8 26.786,36.989 26.717,36.825 19.74,20.489 2.605,10.282 -0.954,8.163 -2.12,3.559 0,0"
             style="fill:#000000;fill-opacity:1;fill-rule:nonzero;stroke:none"
             id="path59" /></g></g></g></g></svg>
