<svg id="Layer_1" enable-background="new 0 0 512 512" height="512" viewBox="0 0 512 512" width="512" xmlns="http://www.w3.org/2000/svg"><path d="m501.94 434.6-100.98-100.84c-3.12-3.12-8.18-3.12-11.31 0l-8.07 8.06-57.45-57.38c20.87-29.2 33.17-64.91 33.17-103.45 0-98.4-80.14-178.46-178.65-178.46s-178.65 80.05-178.65 178.46c0 98.39 80.14 178.44 178.65 178.44 40.87 0 78.58-13.79 108.72-36.95l56.79 56.72-8.05 8.04c-1.5 1.5-2.35 3.54-2.35 5.66s.84 4.16 2.35 5.66l100.97 100.85c6.72 6.71 15.55 10.07 24.38 10.07s17.66-3.36 24.38-10.07l16.1-16.08c6.49-6.48 10.06-15.13 10.06-24.36s-3.57-17.88-10.06-24.37zm-485.94-253.61c0-89.58 72.96-162.46 162.65-162.46s162.65 72.88 162.65 162.46c0 89.57-72.96 162.44-162.65 162.44s-162.65-72.87-162.65-162.44zm283.66 131.15c5.13-4.72 9.98-9.74 14.53-15.03l56.09 56.01-14.79 14.77zm190.97 159.86-16.1 16.08c-7.21 7.2-18.93 7.2-26.14 0l-95.31-95.18 42.23-42.17 95.32 95.2c3.46 3.46 5.37 8.09 5.37 13.04 0 4.94-1.91 9.57-5.37 13.03zm-311.98-435.92c-79.99 0-145.06 65.01-145.06 144.91 0 79.89 65.07 144.89 145.06 144.89s145.06-65 145.06-144.89c0-79.91-65.07-144.91-145.06-144.91zm0 273.79c-71.16 0-129.06-57.82-129.06-128.89 0-71.08 57.9-128.91 129.06-128.91s129.06 57.83 129.06 128.91-57.9 128.89-129.06 128.89zm-72.28-76.38c2.6 3.57 1.82 8.57-1.75 11.18-1.42 1.04-3.07 1.54-4.71 1.54-2.47 0-4.9-1.14-6.47-3.29-13.19-18.08-20.16-39.5-20.16-61.93 0-20.32 5.8-40.04 16.79-57.03 2.4-3.71 7.35-4.77 11.06-2.38 3.71 2.4 4.77 7.35 2.38 11.06-9.31 14.4-14.22 31.12-14.22 48.35-.01 19.02 5.9 37.17 17.08 52.5z"/></svg>