<svg id="Layer_2" enable-background="new 0 0 96 96" height="512" viewBox="0 0 96 96" width="512" xmlns="http://www.w3.org/2000/svg"><path d="m77.229 18.175c-2.429 0-4.46 1.661-5.068 3.9h-48.321c-.608-2.24-2.639-3.9-5.068-3.9-2.907 0-5.271 2.365-5.271 5.272v43.878 3.5c0 3.86 3.14 7 7 7h55c3.86 0 7-3.14 7-7v-3.5-43.878c-.001-2.907-2.366-5.272-5.272-5.272zm0 1c2.355 0 4.271 1.917 4.271 4.272v42.493c-1.136-1.088-2.655-1.71-4.271-1.71-1.617 0-3.136.622-4.272 1.71v-42.493c0-2.356 1.916-4.272 4.272-4.272zm-62.729 4.272c0-2.355 1.916-4.272 4.271-4.272s4.272 1.917 4.272 4.272v42.493c-1.136-1.088-2.655-1.71-4.272-1.71-1.616 0-3.135.622-4.271 1.71zm61 53.378h-55c-3.309 0-6-2.691-6-6v-3.337c.967-1.414 2.551-2.259 4.271-2.259 1.766 0 3.393.885 4.352 2.368.094.145.253.229.42.229.047 0 .095-.007.142-.021.212-.063.358-.258.358-.479v-43.879c0-.127-.029-.247-.038-.372h47.988c-.009.125-.038.244-.038.372v43.878c0 .222.146.417.358.479.212.06.441-.022.562-.208.959-1.482 2.586-2.368 4.352-2.368 1.72 0 3.304.845 4.271 2.259v3.337c.002 3.31-2.689 6.001-5.998 6.001z"/><path d="m38.985 34.154c.179 0 .344-.095.433-.25.089-.154.089-.345 0-.5l-3.32-5.76c-.089-.155-.254-.25-.433-.25-.178 0-.343.095-.433.249l-.834 1.439-1.63-2.818c-.179-.31-.688-.31-.866 0l-4.12 7.14c-.089.155-.089.345 0 .5s.254.25.433.25h8.25zm-3.321-5.261 2.456 4.261h-1.366l-1.778-3.074zm-3.329-1.379 1.624 2.808c.002.004.001.009.003.013l1.634 2.819h-6.516z"/><path d="m33.715 35.398c0-.276-.224-.5-.5-.5s-.5.224-.5.5v3.5c0 .276.224.5.5.5s.5-.224.5-.5z"/><path d="m33.715 42.148c0-.276-.224-.5-.5-.5s-.5.224-.5.5v3.5c0 .276.224.5.5.5s.5-.224.5-.5z"/><path d="m33.715 48.898c0-.276-.224-.5-.5-.5s-.5.224-.5.5v3.5c0 .276.224.5.5.5s.5-.224.5-.5z"/><path d="m33.715 55.648c0-.276-.224-.5-.5-.5s-.5.224-.5.5v3.5c0 .276.224.5.5.5s.5-.224.5-.5z"/><path d="m33.215 61.898c-.276 0-.5.224-.5.5v3.5c0 .276.224.5.5.5s.5-.224.5-.5v-3.5c0-.276-.223-.5-.5-.5z"/><path d="m49.715 34.898c-.276 0-.5.224-.5.5v3.5c0 .276.224.5.5.5s.5-.224.5-.5v-3.5c0-.276-.223-.5-.5-.5z"/><path d="m49.715 41.648c-.276 0-.5.224-.5.5v3.5c0 .276.224.5.5.5s.5-.224.5-.5v-3.5c0-.276-.223-.5-.5-.5z"/><path d="m49.715 48.398c-.276 0-.5.224-.5.5v3.5c0 .276.224.5.5.5s.5-.224.5-.5v-3.5c0-.276-.223-.5-.5-.5z"/><path d="m49.715 55.148c-.276 0-.5.224-.5.5v3.5c0 .276.224.5.5.5s.5-.224.5-.5v-3.5c0-.276-.223-.5-.5-.5z"/><path d="m49.715 61.898c-.276 0-.5.224-.5.5v3.5c0 .276.224.5.5.5s.5-.224.5-.5v-3.5c0-.276-.223-.5-.5-.5z"/><path d="m66.715 35.398c0-.276-.224-.5-.5-.5s-.5.224-.5.5v3.5c0 .276.224.5.5.5s.5-.224.5-.5z"/><path d="m66.715 42.148c0-.276-.224-.5-.5-.5s-.5.224-.5.5v3.5c0 .276.224.5.5.5s.5-.224.5-.5z"/><path d="m66.715 48.898c0-.276-.224-.5-.5-.5s-.5.224-.5.5v3.5c0 .276.224.5.5.5s.5-.224.5-.5z"/><path d="m66.715 55.648c0-.276-.224-.5-.5-.5s-.5.224-.5.5v3.5c0 .276.224.5.5.5s.5-.224.5-.5z"/><path d="m66.215 61.898c-.276 0-.5.224-.5.5v3.5c0 .276.224.5.5.5s.5-.224.5-.5v-3.5c0-.276-.223-.5-.5-.5z"/><path d="m36.715 68.211h-3.5c-.276 0-.5.224-.5.5s.224.5.5.5h3.5c.276 0 .5-.224.5-.5s-.223-.5-.5-.5z"/><path d="m43.205 68.211h-3.5c-.276 0-.5.224-.5.5s.224.5.5.5h3.5c.276 0 .5-.224.5-.5s-.224-.5-.5-.5z"/><path d="m49.715 68.211h-3.5c-.276 0-.5.224-.5.5s.224.5.5.5h3.5c.276 0 .5-.224.5-.5s-.223-.5-.5-.5z"/><path d="m53.215 31.857h-3.5c-.276 0-.5.224-.5.5s.224.5.5.5h3.5c.276 0 .5-.224.5-.5s-.223-.5-.5-.5z"/><path d="m59.705 31.857h-3.5c-.276 0-.5.224-.5.5s.224.5.5.5h3.5c.276 0 .5-.224.5-.5s-.224-.5-.5-.5z"/><path d="m66.715 32.357c0-.276-.224-.5-.5-.5h-3.5c-.276 0-.5.224-.5.5s.224.5.5.5h3.5c.277 0 .5-.224.5-.5z"/><path d="m47.476 52.398c0-1.612-2.311-2.875-5.261-2.875s-5.26 1.263-5.26 2.875 2.311 2.875 5.26 2.875 5.261-1.262 5.261-2.875zm-9.521 0c0-.887 1.75-1.875 4.26-1.875s4.261.988 4.261 1.875-1.75 1.875-4.261 1.875-4.26-.988-4.26-1.875z"/><path d="m68.138 69.007c-.195-.195-.512-.195-.707 0l-1.216 1.215-1.215-1.215c-.195-.195-.512-.195-.707 0s-.195.512 0 .707l1.216 1.215-1.216 1.215c-.195.195-.195.512 0 .707.098.098.226.146.354.146s.255-.047.353-.145l1.216-1.215 1.216 1.215c.098.098.226.146.354.146s.256-.049.354-.146c.195-.195.195-.512 0-.707l-1.216-1.215 1.216-1.215c.193-.196.193-.512-.002-.708z"/><path d="m19.271 59.34v-34.765c0-.276-.224-.5-.5-.5s-.5.224-.5.5v34.765c0 .276.224.5.5.5s.5-.224.5-.5z"/><path d="m77.229 59.84c.276 0 .5-.224.5-.5v-34.765c0-.276-.224-.5-.5-.5s-.5.224-.5.5v34.765c0 .276.223.5.5.5z"/></svg>