<svg id="Layer_1" height="512" viewBox="0 0 100 100" width="512" xmlns="http://www.w3.org/2000/svg"><path d="m50 96.5c25.64 0 46.5-20.86 46.5-46.5s-20.86-46.5-46.5-46.5-46.5 20.86-46.5 46.5 20.86 46.5 46.5 46.5zm0-90c23.99 0 43.5 19.51 43.5 43.5s-19.51 43.5-43.5 43.5-43.5-19.51-43.5-43.5 19.51-43.5 43.5-43.5z"/><path d="m50 81.75c11.95 0 21.67-9.72 21.67-21.67 0-11.47-19.6-39.98-20.43-41.19-.56-.81-1.91-.81-2.47 0-.83 1.21-20.43 29.71-20.43 41.19-.01 11.95 9.71 21.67 21.66 21.67zm0-59.32c4.35 6.51 18.67 28.66 18.67 37.65 0 10.29-8.37 18.67-18.67 18.67s-18.67-8.37-18.67-18.67c0-8.99 14.32-31.13 18.67-37.65z"/><path d="m50 76.05c9.15 0 16.59-7.44 16.59-16.59 0-.83-.67-1.5-1.5-1.5s-1.5.67-1.5 1.5c0 7.5-6.1 13.59-13.59 13.59-.83 0-1.5.67-1.5 1.5s.67 1.5 1.5 1.5z"/></svg>