<svg id="Layer_1" viewBox="0 0 512 512" xmlns="http://www.w3.org/2000/svg"><path d="m216.311 220.696c25.397 0 46.059-20.662 46.059-46.059 0-33.827-39.261-66.994-40.932-68.389-2.939-2.455-7.207-2.481-10.177-.064-1.674 1.363-41.009 33.772-41.009 68.453 0 25.397 20.662 46.059 46.059 46.059zm-.027-97.558c11.502 11.037 30.086 32.806 30.086 51.499 0 16.575-13.484 30.059-30.059 30.059s-30.059-13.484-30.059-30.059c0-20.679 20.303-42.318 30.031-51.499zm-71.044 132.808c0-4.418 3.582-8 8-8h198.221c4.418 0 8 3.582 8 8s-3.582 8-8 8h-198.221c-4.418 0-8-3.582-8-8zm-19.048 62.941c3.171 3.076 3.249 8.141.172 11.312l-32.616 33.625c-1.492 1.538-3.539 2.414-5.681 2.43h-.061c-2.121 0-4.156-.842-5.657-2.343l-13.466-13.466c-3.125-3.124-3.125-8.189 0-11.313 3.124-3.124 8.189-3.124 11.313 0l7.722 7.722 26.96-27.794c3.075-3.172 8.14-3.25 11.312-.172zm325.928-4.715c3.125 3.124 3.125 8.189 0 11.313l-50.708 50.707c-1.562 1.562-3.61 2.343-5.657 2.343s-4.095-.781-5.657-2.343l-30.09-30.09c-3.125-3.124-3.125-8.189 0-11.313 3.124-3.124 8.189-3.124 11.313 0l24.433 24.433 45.051-45.05c3.125-3.124 8.19-3.125 11.313 0zm36.846 155.165-30.56-62.132c12.459-9.29 22.239-21.791 28.341-36.524 8.927-21.551 8.927-45.288 0-66.839-8.557-20.658-24.347-36.916-44.622-46.092v-227.98c0-14.707-11.964-26.671-26.671-26.671h-342.164c-14.707 0-26.671 11.965-26.671 26.671v3.164c-15.555.489-28.061 13.286-28.061 28.958v416.421c0 15.98 13 28.981 28.98 28.981h337.546c15.98 0 28.98-13.001 28.98-28.981v-1.355c7.403-1.302 13.985-5.006 18.912-10.281l7.578 22.664c.06.177.125.353.196.525 4.207 10.155 10.785 14.785 15.562 16.881 3.273 1.436 6.724 2.154 10.178 2.154 3.282 0 6.568-.649 9.706-1.949 6.439-2.667 11.381-7.712 13.915-14.205 1.896-4.86 3.274-12.786-.933-22.941-.066-.159-.137-.315-.212-.469zm-426.347-439.567c0-5.884 4.787-10.671 10.671-10.671h342.165c5.884 0 10.671 4.787 10.671 10.671v222.497c-3.988-.95-8.015-1.622-12.061-2v-137.878c0-2.122-.843-4.157-2.343-5.657l-71.478-71.478c-1.5-1.5-3.535-2.343-5.657-2.343h-271.968zm324.132 74.619h-44.164v-44.164zm11.314 373.924c0 7.158-5.823 12.981-12.98 12.981h-337.547c-7.157 0-12.98-5.823-12.98-12.981v-416.421c0-7.158 5.823-12.981 12.98-12.981h279.049v63.478c0 4.418 3.582 8 8 8h63.478v129.879c-8.629.804-17.184 2.901-25.419 6.312-13.604 5.635-25.302 14.408-34.33 25.528h-185.075c-4.418 0-8 3.582-8 8s3.582 8 8 8h174.788c-.938 1.876-1.835 3.778-2.645 5.735-1.688 4.074-3.053 8.226-4.103 12.427h-168.04c-4.418 0-8 3.582-8 8s3.582 8 8 8h165.608c-.352 6.059-.068 12.14.862 18.162h-166.47c-4.418 0-8 3.582-8 8s3.582 8 8 8h170.513c.507 1.425 1.047 2.843 1.63 4.25 2.03 4.901 4.486 9.54 7.292 13.911h-179.435c-4.418 0-8 3.582-8 8s3.582 8 8 8h192.664c7.67 7.281 16.677 13.182 26.741 17.351 8.236 3.412 16.79 5.509 25.419 6.313zm16-17.846v-36.21c1.519-.142 3.035-.317 4.548-.539l7.362 22.018c-.847 6.858-5.571 12.518-11.91 14.731zm-35.297-57.305c-17.603-7.292-31.312-21.001-38.603-38.604-7.292-17.603-7.292-36.99 0-54.593 2.233-5.39 5.073-10.411 8.438-14.998.111-.145.222-.29.323-.442 7.589-10.184 17.804-18.176 29.843-23.163 8.801-3.646 18.049-5.468 27.296-5.468s18.496 1.823 27.297 5.468c17.603 7.292 31.312 21.001 38.603 38.604 7.292 17.603 7.292 36.991 0 54.593s-21.001 31.312-38.604 38.603-36.991 7.291-54.593 0zm96.437 83.77c-.934 2.395-2.757 4.255-5.132 5.239-2.374.984-4.978.958-7.333-.076-2.938-1.289-5.392-4.09-7.106-8.111l-21.421-64.071c1.769-.605 3.53-1.247 5.272-1.968 1.771-.734 3.498-1.54 5.203-2.378l29.799 60.585c1.637 4.063 1.886 7.786.718 10.78zm-115.744-60.177c0 4.418-3.582 8-8 8h-198.221c-4.418 0-8-3.582-8-8s3.582-8 8-8h198.221c4.418 0 8 3.582 8 8zm-233.269-176.192c3.171 3.076 3.249 8.141.172 11.312l-32.616 33.625c-1.492 1.538-3.539 2.414-5.681 2.43h-.061c-2.121 0-4.156-.842-5.657-2.343l-13.466-13.466c-3.125-3.124-3.125-8.189 0-11.313 3.124-3.124 8.189-3.124 11.313 0l7.722 7.722 26.96-27.795c3.075-3.171 8.14-3.25 11.312-.172zm0 136.647c3.171 3.076 3.249 8.141.172 11.312l-32.616 33.625c-1.492 1.538-3.539 2.414-5.681 2.43h-.061c-2.121 0-4.156-.842-5.657-2.343l-13.466-13.466c-3.125-3.124-3.125-8.189 0-11.313s8.19-3.125 11.313 0l7.722 7.722 26.96-27.794c3.075-3.172 8.14-3.25 11.312-.172z"/></svg>