<svg id="svg3435" height="512" viewBox="0 0 135.46666 135.46667" width="512" xmlns="http://www.w3.org/2000/svg" xmlns:svg="http://www.w3.org/2000/svg"><g id="layer1"><path id="path2876" d="m19.050733 2.117098c-9.327 0-16.9336 7.606651-16.9336 16.933594v19.048828a2.1168766 2.1168766 0 0 0 2.1153 2.117187h29.6347a2.1168766 2.1168766 0 0 0 2.1153-2.117187v-19.048828c0-9.326943-7.6048-16.933594-16.9317-16.933594zm0 4.232422c7.0391 0 12.6992 5.662074 12.6992 12.701172v16.93164h-25.4004v-16.93164c0-7.039098 5.662-12.701172 12.7012-12.701172z" font-variant-ligatures="normal" font-variant-position="normal" font-variant-caps="normal" font-variant-numeric="normal" font-variant-alternates="normal" font-variant-east-asian="normal" font-feature-settings="normal" font-variation-settings="normal" text-indent="0" text-align="start" text-decoration-line="none" text-decoration-style="solid" text-decoration-color="rgb(0,0,0)" text-transform="none" text-orientation="mixed" white-space="normal" shape-padding="0" shape-margin="0" inline-size="0" isolation="auto" mix-blend-mode="normal" solid-color="rgb(0,0,0)" solid-opacity="1" vector-effect="none"/><path id="path2878" d="m82.048833 52.193271c-3.6555-.13913-8.1341.52058-11.9317 3.22266-3.6775 2.6166-6.0572 6.20828-7.2871 9.5996-1.2298 3.39133-1.6507 6.61494.1172 9.09961 1.7679 2.48469 4.9535 3.14595 8.5605 3.09571 3.6071-.0503 7.7776-1.12167 11.4551-3.73828 3.7976-2.70208 5.8903-6.71766 6.9571-10.2168.6021-2.59331 1.7066-6.38316.2128-8.48242-2.1805-2.07069-5.6374-2.47645-8.0839-2.58008zm-.1602 4.23047c1.4972.057 2.8407.28867 3.7852.55664.4015.11392.6791.22921.8964.32617.02.23715.038.53759.014.95508-.056.98011-.2759 2.32665-.7129 3.75976-.8738 2.86624-2.6046 6.04052-5.3613 8.00196-2.8768 2.04689-6.2634 2.91413-9.0625 2.95312-2.7991.039-4.8701-1.06046-5.0508-1.31445-.1807-.25402-.5422-2.57142.4121-5.20313.9544-2.63171 2.885-5.54686 5.7617-7.59375 2.7567-1.96144 6.3241-2.55537 9.3184-2.4414z" font-variant-ligatures="normal" font-variant-position="normal" font-variant-caps="normal" font-variant-numeric="normal" font-variant-alternates="normal" font-variant-east-asian="normal" font-feature-settings="normal" font-variation-settings="normal" text-indent="0" text-align="start" text-decoration-line="none" text-decoration-style="solid" text-decoration-color="rgb(0,0,0)" text-transform="none" text-orientation="mixed" white-space="normal" shape-padding="0" shape-margin="0" inline-size="0" isolation="auto" mix-blend-mode="normal" solid-color="rgb(0,0,0)" solid-opacity="1" vector-effect="none"/><path id="path2880" d="m74.794933 63.154211c-3.4983.9059-8.3901 3.76488-10.6622 5.61718-3.3069 2.75105-6.1496 6.73894-6.7871 12.1543-.1366 1.16127.6942 2.21335 1.8555 2.34961 1.1606.13669 2.2123-.69301 2.3496-1.85352.4989-4.23836 2.5775-7.13883 5.2891-9.39453 2.7115-2.25569 6.053-3.74867 8.7363-4.78125 1.092-.41922 1.6369-1.64468 1.2168-2.73632-.3177-.82461-1.1143-1.36503-1.998-1.35547z" font-variant-ligatures="normal" font-variant-position="normal" font-variant-caps="normal" font-variant-numeric="normal" font-variant-alternates="normal" font-variant-east-asian="normal" font-feature-settings="normal" font-variation-settings="normal" text-indent="0" text-align="start" text-decoration-line="none" text-decoration-style="solid" text-decoration-color="rgb(0,0,0)" text-transform="none" text-orientation="mixed" white-space="normal" shape-padding="0" shape-margin="0" inline-size="0" isolation="auto" mix-blend-mode="normal" solid-color="rgb(0,0,0)" solid-opacity="1" vector-effect="none"/><path id="circle2884" d="m74.083933 35.982332c-17.5099 0-31.75 14.240029-31.75 31.749999s14.2401 31.75 31.75 31.75c17.51 0 31.749997-14.24003 31.749997-31.75s-14.239997-31.749999-31.749997-31.749999zm0 4.234375c15.2221 0 27.515597 12.293514 27.515597 27.515624s-12.293497 27.51758-27.515597 27.51758-27.5176-12.29547-27.5176-27.51758 12.2955-27.515624 27.5176-27.515624z" font-variant-ligatures="normal" font-variant-position="normal" font-variant-caps="normal" font-variant-numeric="normal" font-variant-alternates="normal" font-variant-east-asian="normal" font-feature-settings="normal" font-variation-settings="normal" text-indent="0" text-align="start" text-decoration-line="none" text-decoration-style="solid" text-decoration-color="rgb(0,0,0)" text-transform="none" text-orientation="mixed" white-space="normal" shape-padding="0" shape-margin="0" inline-size="0" isolation="auto" mix-blend-mode="normal" solid-color="rgb(0,0,0)" solid-opacity="1" vector-effect="none"/><path id="path2886" d="m44.449233 10.583895a2.1166649 2.1166649 0 0 0 -2.1153 2.115234 2.1166649 2.1166649 0 0 0 2.1153 2.117188h5.998a2.1166649 2.1166649 0 0 0 2.1172-2.117188 2.1166649 2.1166649 0 0 0 -2.1172-2.115234zm29.1328 0a2.1166649 2.1166649 0 0 0 -2.1172 2.115234 2.1166649 2.1166649 0 0 0 2.1172 2.117188h19.5507a2.1166649 2.1166649 0 0 0 2.1172-2.117188 2.1166649 2.1166649 0 0 0 -2.1172-2.115234z" font-variant-ligatures="normal" font-variant-position="normal" font-variant-caps="normal" font-variant-numeric="normal" font-variant-alternates="normal" font-variant-east-asian="normal" font-feature-settings="normal" font-variation-settings="normal" text-indent="0" text-align="start" text-decoration-line="none" text-decoration-style="solid" text-decoration-color="rgb(0,0,0)" text-transform="none" text-orientation="mixed" white-space="normal" shape-padding="0" shape-margin="0" inline-size="0" isolation="auto" mix-blend-mode="normal" solid-color="rgb(0,0,0)" solid-opacity="1" vector-effect="none"/><path id="path2888" d="m44.449233 19.050692a2.1166649 2.1166649 0 0 0 -2.1153 2.115234 2.1166649 2.1166649 0 0 0 2.1153 2.117187h42.3339a2.1166649 2.1166649 0 0 0 2.1172-2.117187 2.1166649 2.1166649 0 0 0 -2.1172-2.115234z" font-variant-ligatures="normal" font-variant-position="normal" font-variant-caps="normal" font-variant-numeric="normal" font-variant-alternates="normal" font-variant-east-asian="normal" font-feature-settings="normal" font-variation-settings="normal" text-indent="0" text-align="start" text-decoration-line="none" text-decoration-style="solid" text-decoration-color="rgb(0,0,0)" text-transform="none" text-orientation="mixed" white-space="normal" shape-padding="0" shape-margin="0" inline-size="0" isolation="auto" mix-blend-mode="normal" solid-color="rgb(0,0,0)" solid-opacity="1" vector-effect="none"/><path id="path2890" d="m19.050733 2.117098a2.1166649 2.1166649 0 0 0 -2.1172 2.115234 2.1166649 2.1166649 0 0 0 2.1172 2.117188h80.4317c4.336997 0 7.367997 1.420025 9.451097 3.738281s3.25 5.67536 3.25 9.757812v67.996098a2.1166649 2.1166649 0 0 0 2.1172 2.11718 2.1166649 2.1166649 0 0 0 2.1152-2.11718v-67.996098c0-4.895372-1.4199-9.34487-4.3339-12.58789-2.9141-3.243021-7.2921-5.140625-12.599597-5.140625zm14.8164 16.404297a2.1166649 2.1166649 0 0 0 -2.1172 2.115234v85.726561c0 3.18816 2.6322 5.82031 5.8203 5.82031h56.6211a2.1166649 2.1166649 0 0 0 2.1172-2.11718 2.1166649 2.1166649 0 0 0 -2.1172-2.11719h-56.6211c-.916 0-1.5878-.66988-1.5878-1.58594v-85.726561a2.1166649 2.1166649 0 0 0 -2.1153-2.115234z" font-variant-ligatures="normal" font-variant-position="normal" font-variant-caps="normal" font-variant-numeric="normal" font-variant-alternates="normal" font-variant-east-asian="normal" font-feature-settings="normal" font-variation-settings="normal" text-indent="0" text-align="start" text-decoration-line="none" text-decoration-style="solid" text-decoration-color="rgb(0,0,0)" text-transform="none" text-orientation="mixed" white-space="normal" shape-padding="0" shape-margin="0" inline-size="0" isolation="auto" mix-blend-mode="normal" solid-color="rgb(0,0,0)" solid-opacity="1" vector-effect="none"/><path id="path2892" d="m105.30463 93.132721c-3.1881 0-5.822197 2.63418-5.822197 5.82227v32.277339a2.1168766 2.1168766 0 0 0 3.167897 1.83789l13.7656-7.86523 13.7676 7.86523a2.1168766 2.1168766 0 0 0 3.166-1.83789v-32.277339c0-3.18816-2.6321-5.82227-5.8203-5.82227zm0 4.23438h22.2246c.9161 0 1.5879.67182 1.5879 1.58789v28.632809l-11.6504-6.6582a2.1168766 2.1168766 0 0 0 -2.0996 0l-11.6504 6.65625v-28.630859c0-.91613.6718-1.58789 1.5879-1.58789z" font-variant-ligatures="normal" font-variant-position="normal" font-variant-caps="normal" font-variant-numeric="normal" font-variant-alternates="normal" font-variant-east-asian="normal" font-feature-settings="normal" font-variation-settings="normal" text-indent="0" text-align="start" text-decoration-line="none" text-decoration-style="solid" text-decoration-color="rgb(0,0,0)" text-transform="none" text-orientation="mixed" white-space="normal" shape-padding="0" shape-margin="0" inline-size="0" isolation="auto" mix-blend-mode="normal" solid-color="rgb(0,0,0)" solid-opacity="1" vector-effect="none"/><path id="path2894" d="m109.00773 101.59952a2.1166649 2.1166649 0 0 0 -2.1171 2.11719 2.1166649 2.1166649 0 0 0 2.1171 2.11718h14.8165a2.1166649 2.1166649 0 0 0 2.1171-2.11718 2.1166649 2.1166649 0 0 0 -2.1171-2.11719z" font-variant-ligatures="normal" font-variant-position="normal" font-variant-caps="normal" font-variant-numeric="normal" font-variant-alternates="normal" font-variant-east-asian="normal" font-feature-settings="normal" font-variation-settings="normal" text-indent="0" text-align="start" text-decoration-line="none" text-decoration-style="solid" text-decoration-color="rgb(0,0,0)" text-transform="none" text-orientation="mixed" white-space="normal" shape-padding="0" shape-margin="0" inline-size="0" isolation="auto" mix-blend-mode="normal" solid-color="rgb(0,0,0)" solid-opacity="1" vector-effect="none"/><path id="circle3262" d="m65.787233 10.637983a2.0792587 2.0792587 0 0 1 2.0792 2.079258 2.0792587 2.0792587 0 0 1 -2.0792 2.079259 2.0792587 2.0792587 0 0 1 -2.0793-2.079259 2.0792587 2.0792587 0 0 1 2.0793-2.079258z"/><path id="circle3264" d="m58.320133 10.637983a2.0792587 2.0792587 0 0 1 2.0793 2.079258 2.0792587 2.0792587 0 0 1 -2.0793 2.079259 2.0792587 2.0792587 0 0 1 -2.0792-2.079259 2.0792587 2.0792587 0 0 1 2.0792-2.079258z"/></g></svg>