<svg id="Layer_1" enable-background="new 0 0 512 512" height="512" viewBox="0 0 512 512" width="512" xmlns="http://www.w3.org/2000/svg"><path d="m458.534 417.193h-405.068c-20.646 0-31.447-17.112-31.447-34.015 0-12.73 6.127-25.578 17.97-31.146-.368-5.199-.555-10.366-.555-15.419 0-92.863 58.466-174.655 145.909-204.773 1.36-13.994 11.032-26.328 25.259-30.506 29.669-8.702 61.138-8.702 90.793 0 14.227 4.178 23.899 16.51 25.262 30.502 87.421 30.12 145.909 111.982 145.909 204.777 0 5.076-.188 10.244-.552 15.419 11.84 5.57 17.967 18.418 17.967 31.146 0 16.903-10.801 34.015-31.447 34.015zm-405.068-53.85c-13.628 0-17.267 12.467-17.267 19.835s3.639 19.835 17.267 19.835h405.067c13.628 0 17.267-12.467 17.267-19.835s-3.639-19.835-17.267-19.835zm.545-14.18h403.982c.26-4.216.393-8.417.393-12.55 0-66.335-31.988-126.696-83.588-164.003l-14.357 56.354c-.963 3.79-4.832 6.082-8.619 5.119-3.797-.966-6.087-4.825-5.121-8.621l15.594-61.203c-11.58-7.121-23.997-13.145-37.134-17.911l-28.649 119.247c-.912 3.806-4.746 6.16-8.551 5.236-3.808-.914-6.152-4.742-5.24-8.551l29.323-122.04c2.647-10.999-3.787-22.114-14.642-25.3-27.062-7.941-55.74-7.941-82.809 0-10.851 3.186-17.285 14.301-14.638 25.3l29.323 122.04c.912 3.808-1.432 7.636-5.24 8.551-3.794.921-7.635-1.43-8.551-5.236l-28.647-119.245c-13.145 4.766-25.573 10.794-37.156 17.916l13.931 60.265c.884 3.816-1.493 7.624-5.309 8.506-3.801.876-7.624-1.495-8.504-5.31l-12.727-55.04c-51.542 37.299-83.461 97.587-83.461 163.926 0 4.116.134 8.316.397 12.55z"/></svg>