<svg id="Capa_1" enable-background="new 0 0 511.997 511.997" height="512" viewBox="0 0 511.997 511.997" width="512" xmlns="http://www.w3.org/2000/svg"><g><path d="m143.486 29.472c-27.522 0-49.94 22.39-49.94 49.94 0 26.336 21.127 49.94 49.94 49.94 27.537 0 49.94-22.403 49.94-49.94 0-27.535-22.401-49.94-49.94-49.94zm0 15c2.315 0 4.578.227 6.769.659-9.053 5.694-12.545 12.235-15.383 18.979-1.87 4.444-2.57 6.107-6.543 7.496-3.757 1.316-9.337-2.122-15.31-9.285 5.994-10.645 17.405-17.849 30.467-17.849zm-34.941 34.94c0-.082.001-.163.002-.245 6.805 5.833 12.913 7.751 18.003 7.751 2.501 0 4.757-.463 6.729-1.152 10.264-3.588 13.123-10.381 15.419-15.839 2.424-5.762 4.725-11.228 18.339-16.303 6.036 5.518 10.135 13.12 11.146 21.656-11.207-.959-23.448 2.182-32.309 8.729-8.742 6.459-14.114 15.91-15.817 27.66-12.62-5.274-21.512-17.746-21.512-32.257zm36.283 34.915c1.047-8.009 4.382-14.132 9.96-18.254 5.088-3.76 13.717-6.559 21.94-5.889-4.42 13.606-16.976 23.577-31.9 24.143z"/><path d="m279.076 70.398c4.143 0 7.5-3.357 7.5-7.5s-3.357-7.5-7.5-7.5h-56.333c-6.564 0-11.904 5.34-11.904 11.903v24.221c0 6.563 5.34 11.903 11.904 11.903h136.924c6.564 0 11.904-5.34 11.904-11.903v-24.22c0-6.563-5.34-11.903-11.904-11.903h-51.591c-4.143 0-7.5 3.357-7.5 7.5s3.357 7.5 7.5 7.5h48.495v18.027h-130.732v-18.028z"/><path d="m126.106 156.658c0 4.143 3.358 7.5 7.5 7.5h197.904c4.143 0 7.5-3.357 7.5-7.5s-3.357-7.5-7.5-7.5h-197.904c-4.142 0-7.5 3.358-7.5 7.5z"/><path d="m339.01 189.686c0-4.143-3.357-7.5-7.5-7.5h-197.904c-4.142 0-7.5 3.357-7.5 7.5s3.358 7.5 7.5 7.5h197.904c4.142 0 7.5-3.358 7.5-7.5z"/><path d="m310.49 222.713c0-4.143-3.357-7.5-7.5-7.5h-169.384c-4.142 0-7.5 3.357-7.5 7.5s3.358 7.5 7.5 7.5h169.384c4.143 0 7.5-3.358 7.5-7.5z"/><path d="m262.931 255.999c0-4.143-3.357-7.5-7.5-7.5h-121.825c-4.142 0-7.5 3.357-7.5 7.5s3.358 7.5 7.5 7.5h121.824c4.143 0 7.501-3.357 7.501-7.5z"/><path d="m255.444 289.286c0-4.143-3.358-7.5-7.5-7.5h-114.338c-4.142 0-7.5 3.357-7.5 7.5s3.358 7.5 7.5 7.5h114.338c4.142 0 7.5-3.357 7.5-7.5z"/><path d="m133.606 315.072c-4.142 0-7.5 3.357-7.5 7.5s3.358 7.5 7.5 7.5h98.952c4.142 0 7.5-3.357 7.5-7.5s-3.358-7.5-7.5-7.5z"/><path d="m446.216 309.945c-4.598-5.716-6.281-13.092-4.619-20.235 2.699-11.603-.012-23.597-7.438-32.91-6.553-8.217-15.957-13.318-26.262-14.371v-222.496c-.001-10.992-8.943-19.933-19.934-19.933h-310.81c-10.991 0-19.933 8.941-19.933 19.933v254.854c0 4.143 3.358 7.5 7.5 7.5s7.5-3.357 7.5-7.5v-254.854c0-2.72 2.213-4.933 4.933-4.933h310.81c2.721 0 4.934 2.213 4.934 4.933v219.741c-3.012-1.529-5.698-3.71-7.868-6.455-7.388-9.344-18.456-14.703-30.368-14.703s-22.98 5.359-30.368 14.703c-4.528 5.728-11.302 9.006-18.599 9.006-.09-.001-.18 0-.27 0-11.848 0-22.87 5.306-30.262 14.575-7.427 9.312-10.138 21.308-7.438 32.909 1.662 7.146-.021 14.521-4.619 20.236-7.466 9.282-10.228 21.266-7.577 32.879 2.65 11.612 10.338 21.211 21.092 26.334 6.623 3.155 11.34 9.07 12.941 16.229.164.731.347 1.455.551 2.169l-11.655 57.529h-130c-3.352-11.611-3.011-24.494 1.014-39.206 2.668-9.75.333-20.155-6.246-27.834-6.518-7.608-16.333-11.478-26.264-10.354-15.042 1.706-30.068.499-44.741-3.586v-60.319c0-4.143-3.358-7.5-7.5-7.5s-7.5 3.357-7.5 7.5v77.865c0 43.249 35.186 78.434 78.433 78.434h139.764l-6.436 31.769c-1.281 6.322 1.098 12.696 6.207 16.634 5.098 3.931 11.871 4.619 17.666 1.765l61.015-30.036c.494-.242 1.088-.242 1.582 0l61.015 30.036c5.786 2.85 12.557 2.174 17.665-1.764 5.109-3.938 7.488-10.312 6.208-16.635l-6.472-31.941c-.822-4.06-4.781-6.682-8.84-5.861-4.06.822-6.684 4.78-5.861 8.84l6.472 31.94c.183.904-.26 1.465-.663 1.775-.402.312-1.058.596-1.884.188l-61.016-30.037c-4.645-2.285-10.188-2.286-14.831.001l-61.015 30.036c-.826.406-1.481.122-1.885-.188s-.845-.87-.662-1.774l18.007-88.883c2.631 2.317 5.6 4.294 8.853 5.86 5.341 2.572 11.069 3.858 16.797 3.858 5.781 0 11.562-1.311 16.942-3.929 6.595-3.211 14.162-3.21 20.757-.001 10.712 5.215 23.009 5.24 33.738.072 3.253-1.566 6.222-3.543 8.854-5.861l5.775 28.507c.721 3.558 3.848 6.012 7.343 6.012.493 0 .995-.049 1.497-.15 4.06-.822 6.684-4.78 5.861-8.84l-8.898-43.921c.203-.715.387-1.439.551-2.171 1.602-7.158 6.318-13.073 12.94-16.229 10.754-5.122 18.442-14.721 21.093-26.334s-.11-23.595-7.576-32.878zm-327.563 72.651c5.049-.569 9.854 1.326 13.181 5.208 3.387 3.954 4.542 9.099 3.169 14.116-4.316 15.773-5.002 29.979-2.048 43.107-25.47-1.07-47.288-17.256-56.328-40.139-3.628-9.177-4.276-15.661-4.407-25.276 15.254 3.748 30.829 4.752 46.433 2.984zm320.516-43.11c-1.624 7.113-6.333 12.992-12.92 16.131-10.812 5.15-18.512 14.807-21.128 26.493-1.594 7.12-6.277 13.02-12.852 16.186-6.573 3.165-14.105 3.148-20.667-.044-10.766-5.242-23.118-5.242-33.886 0-6.561 3.195-14.093 3.21-20.667.043-6.573-3.165-11.258-9.064-12.851-16.184-2.616-11.688-10.317-21.344-21.129-26.494-6.587-3.139-11.296-9.018-12.919-16.131-1.624-7.113.068-14.454 4.641-20.139 7.506-9.331 10.255-21.372 7.541-33.038-1.653-7.105.007-14.453 4.557-20.157 4.527-5.678 11.278-8.928 18.536-8.928.089-.001.178 0 .269 0 11.912 0 22.972-5.353 30.365-14.703 4.524-5.724 11.305-9.006 18.601-9.006s14.076 3.282 18.601 9.006c7.394 9.351 18.452 14.703 30.365 14.703 7.344-.08 14.225 3.178 18.805 8.928 4.549 5.704 6.21 13.052 4.557 20.157-2.714 11.664.034 23.706 7.541 33.038 4.572 5.685 6.264 13.026 4.64 20.139z"/><path d="m354.66 263.653c-29.465 0-53.437 23.971-53.437 53.436s23.972 53.437 53.437 53.437 53.436-23.972 53.436-53.437-23.971-53.436-53.436-53.436zm0 91.872c-21.194 0-38.437-17.242-38.437-38.437 0-21.193 17.242-38.436 38.437-38.436 21.193 0 38.436 17.242 38.436 38.436 0 21.195-17.242 38.437-38.436 38.437z"/></g></svg>