<svg id="Layer_1" height="512" viewBox="0 0 32 32" width="512" xmlns="http://www.w3.org/2000/svg"><g id="mortgage_loan_2_"><g><g><g><g><g><path d="m26.5 7c-.276 0-.5-.224-.5-.5v-4.5h-2v1.5c0 .276-.224.5-.5.5s-.5-.224-.5-.5v-2c0-.276.224-.5.5-.5h3c.276 0 .5.224.5.5v5c0 .276-.224.5-.5.5z" fill="rgb(0,0,0)"/></g></g></g><g><g><g><path d="m27.5 31h-11c-.276 0-.5-.224-.5-.5s.224-.5.5-.5h10.5v-16.5c0-.276.224-.5.5-.5h1.828l-10.328-10.777-5.372 5.604c-.19.199-.507.208-.707.016-.199-.191-.206-.508-.016-.707l5.733-5.981c.095-.099.225-.155.362-.155.137 0 .267.056.361.154l11.5 12c.139.145.177.357.099.542-.079.185-.26.304-.46.304h-2.5v16.5c0 .276-.224.5-.5.5z" fill="rgb(0,0,0)"/></g></g></g></g></g><g><g><g><g><g><g><g><g><g><g><path d="m19.029 19c-.004 0-.008 0-.012 0-.145-.004-.281-.069-.373-.18l-2.5-3c-.176-.213-.148-.528.064-.705.213-.176.527-.147.705.064l2.133 2.561 5.113-5.578c.189-.204.504-.216.707-.031.203.187.217.503.029.707l-5.498 6c-.094.103-.227.162-.368.162z" fill="rgb(0,0,0)"/></g></g></g></g></g></g></g></g></g><g><g><g><g><g><g><path d="m19 23c-3.309 0-6-2.691-6-6s2.691-6 6-6c1.064 0 2.109.282 3.023.816.238.139.318.445.18.684-.141.239-.449.317-.684.18-.761-.446-1.632-.68-2.519-.68-2.758 0-5 2.243-5 5s2.242 5 5 5c2.756 0 5-2.243 5-5 0-.361-.039-.723-.115-1.072-.061-.271.111-.537.381-.596.275-.058.537.112.596.381.091.422.138.853.138 1.287 0 3.309-2.691 6-6 6z" fill="rgb(0,0,0)"/></g></g></g></g></g></g></g><g><g><g><g><g><path d="m8.5 7c-2.481 0-4.5 2.019-4.5 4.5 0 1.006.327 1.957.952 2.758.864 1.105 2.048 2.62 2.048 4.1v.142c0 .276.224.5.5.5s.5-.224.5-.5v-.142c0-1.825-1.306-3.496-2.266-4.725-.48-.614-.734-1.352-.734-2.133 0-1.93 1.57-3.5 3.5-3.5s3.5 1.57 3.5 3.5c0 .781-.254 1.519-.74 2.142-.954 1.22-2.26 2.891-2.26 4.716v1.905c.398.021.733.138 1 .324v-2.229c0-1.48 1.184-2.995 2.055-4.109.618-.792.945-1.743.945-2.749 0-2.481-2.019-4.5-4.5-4.5z" fill="rgb(0,0,0)"/></g></g></g></g><g><g><g><g><path d="m15.5 29h-14c-.276 0-.5-.224-.5-.5v-2c0-1.93 1.57-3.5 3.5-3.5h.5c.276 0 .5.224.5.5s-.224.5-.5.5h-.5c-1.379 0-2.5 1.121-2.5 2.5v1.5h13v-1.5c0-1.379-1.121-2.5-2.5-2.5h-5c-.276 0-.5-.224-.5-.5s.224-.5.5-.5h5c1.93 0 3.5 1.57 3.5 3.5v2c0 .276-.224.5-.5.5z" fill="rgb(0,0,0)"/></g></g></g><g><g><g><path d="m14.5 31h-12c-.276 0-.5-.224-.5-.5v-2c0-.276.224-.5.5-.5h12c.276 0 .5.224.5.5v2c0 .276-.224.5-.5.5zm-11.5-1h11v-1h-11z" fill="rgb(0,0,0)"/></g></g></g><g><g><g><path d="m10.5 22c-.276 0-.5-.224-.5-.5 0-.275-.225-.5-.5-.5h-2c-.275 0-.5.225-.5.5 0 .276-.224.5-.5.5s-.5-.224-.5-.5c0-.827.673-1.5 1.5-1.5h2c.827 0 1.5.673 1.5 1.5 0 .276-.224.5-.5.5z" fill="rgb(0,0,0)"/></g></g></g></g></g></g></svg>