<svg id="Layer_1" enable-background="new 0 0 70 70" height="512" viewBox="0 0 70 70" width="512" xmlns="http://www.w3.org/2000/svg"><g id="Paper_Recycling"><path d="m22.3900146 22.3756714c1.8800049.9199219 3.7299805 1.8398438 5.5999756 2.7700195.2200928.1098633.4899902.0200195.5999756-.2001953.8500977-1.699707 1.6900635-3.3798828 2.5300293-5.0698242.1500244-.2998047.5800781-.3300781.7700195-.0498047l1.3699951 2.0698242c.1300049.199707.0799561.4799805-.1199951.6098633l-1.2800293.8500977c-.3800049.25-.1699219.8500977.2800293.7998047 1.7700195-.1499023 4.4799805-.3896484 6.0999756-.5395508.1700439-.0205078.2299805-.1000977.2999268-.2304688.630127-1.2597656 1.8000488-3.6298828 2.5600586-5.1499023.1999512-.3999023-.2600098-.8100586-.6300049-.5698242l-1.3599854.8500977c-.0799561-.1000977-.1199951-.1499023-.1599121-.2001953-.4801025-.75-.9801025-1.4897461-1.4500732-2.2397461-.5200195-.8203135-1.2800293-1.1704111-2.2299805-1.1503916-3.9905415.1088371-6.074501.1104355-7.8900146.1699219-1.2099609.050293-2.1400146.6503906-2.6999512 1.7099619-.6900635 1.3203125-2 3.9702148-2.4899902 4.9804688-.1101074.2099608-.0100098.4799803.1999511.5898436z"/><path d="m17.0799561 29.3356323c-.0499268.1201172-.0699463.1801758-.0999756.2402344-.4000244.7900391-.789917 1.5898438-1.1999512 2.3696289-.460083.8701172-.3800049 1.7001953.1099854 2.5102539 2.4200459 3.9221954 2.7236633 4.5290527 4.0899658 6.75.6500244 1.0200195 1.6300049 1.5200195 2.8299561 1.4799805 1.4899902-.0600586 4.4400635-.2602539 5.5600586-.3300781.2399902-.0200195.4199219-.2299805.4100342-.4702148-.1400146-2.0898438-.2700195-4.159668-.4000244-6.2397461-.0200195-.2402344-.2299805-.4301758-.4699707-.4101563-1.9000244.1098633-3.7700195.2202148-5.6600342.3300781-.3399658.0297852-.5699463-.3300781-.4200439-.6298828l1.1000977-2.2202148c.1098633-.2197266.369873-.3100586.5899658-.199707l1.3699951.6796875c.4099121.2001953.8299561-.2797852.5600586-.6499023-1.0200195-1.4501953-2.5800781-3.6796875-3.5200195-5.0097656-.1000977-.1401367-.2000732-.1503906-.3400879-.1401367-1.4099121.0800781-4.0599365.25-5.75.3598633-.4399414.0200195-.5699463.6201172-.1799316.8300781z"/><path d="m46.1600342 31.3659058c-.8000488-1.2602539-2.4400635-3.7202148-3.0600586-4.6503906-.1398926-.199707-.4099121-.25-.6199951-.1201172-1.7299805 1.1601563-3.4599609 2.3100586-5.1999512 3.4599609-.2000732.1401367-.2600098.4101563-.1199951.6201172 1.0400391 1.5800781 2.0799561 3.1503906 3.1199951 4.7299805.1899414.2802734 0 .6601563-.3399658.6899414l-2.4700928.1503906c-.25.0200195-.4599609-.1699219-.4699707-.4101563l-.0999756-1.5302734c-.0300293-.449707-.6500244-.5698242-.8400879-.159668-.75 1.6098633-1.8999023 4.0800781-2.5799561 5.5600586-.0699463.1499023-.0299072.2397461.0500488.3701172.7799072 1.1699219 2.25 3.3798828 3.1800537 4.7900391.25.3696289.829834.1796875.8099365-.2602539l-.0500488-1.6000977c.1199951-.0200195.1800537-.0297852.25-.0400391.8800049-.0498047 1.7700195-.0996094 2.6600342-.1396484.9799806-.0400391 1.6599122-.5205078 2.1199952-1.3603516 2.0176048-3.7624054 2.6541023-4.7956696 3.789917-6.9101563.5700684-1.0795898.5100098-2.1699218-.1298828-3.189453z"/><path d="m37.9400635 50.2555542h-25.7600098c-.5500488 0-1 .4501953-1 1s.4499512 1 1 1h25.7600098c.5599365 0 1-.4501953 1-1s-.4400635-1-1-1z"/><path d="m26.6099854 55.6159058h-14.4299317c-.5500488 0-1 .449707-1 1 0 .5595703.4499512 1 1 1h14.4299316c.5500488 0 1-.4404297 1-1 .0000001-.550293-.4499511-1-.9999999-1z"/><path d="m52.5999756 3.4357295h-34.9499512c-.3601074-.1401367-.7700195-.0698242-1.0800781.1801758-.1279373.0625992.5497856-.604455-12.7700195 13.4897461-.1815699.2184167-.2999268.4220586-.2999268.7099614v42.8100586c0 3.3100586 2.7000732 6.0097656 6.0100098 6.0097656h43.0899658c.6800537 0 1.3400879-.1196289 1.9599609-.3300781.2800293.0205078.5600586.0302734.8400879.0302734 6.1300049 0 11.0999756-4.9697265 11.0999756-11.1098633 0-5.0102539-3.3199463-9.25-7.8900146-10.6303711v-35.1499032c0-3.3198238-2.6999512-6.0097652-6.0100098-6.0097652zm-43.0899658 61.1997075c-2.210083 0-4.0100098-1.7998047-4.0100098-4.0097656v-41.6201172h7.9699707c2.710083 0 4.9300537-2.2099609 4.9300537-4.9199228v-8.6499019h34.1999512c2.2099609 0 4.0100098 1.7998047 4.0100098 4.0097651v34.75c-.3999023-.0498047-.8000488-.0698242-1.2099609-.0698242-6.1400146 0-11.1101074 4.9697266-11.1101074 11.1000977 0 3.9697266 2.0700684 7.449707 5.2000732 9.409668h-39.9799805zm50.1199951-12.449707c.3900146.3901367.3900146 1.0200195 0 1.409668-.3222694.3229752-4.935318 4.9461555-4.6699219 4.6801758-.4118042.3903809-1.0167503.382431-1.420166 0l-2.1398926-2.1499023c-.3900146-.3901367-.3900146-1.0200195 0-1.4101563.3898926-.3896484 1.0200195-.3896484 1.4099121 0l1.4400635 1.4301757c.1001244-.0998306 2.9774818-2.9699669 3.9699707-3.9599609.3242149-.3540802.9850998-.4253082 1.4100342 0z"/></g></svg>