<svg id="Capa_1" enable-background="new 0 0 512 512" height="512" viewBox="0 0 512 512" width="512" xmlns="http://www.w3.org/2000/svg"><g><ellipse cx="76.727" cy="88.176" rx="10" ry="10" transform="matrix(.022 -1 1 .022 -13.123 162.936)"/><path d="m437.02 74.98c-48.353-48.351-112.64-74.98-181.02-74.98-54.951 0-107.33 17.153-151.475 49.603-4.458 3.277-5.416 9.548-2.138 14.007 3.277 4.459 9.549 5.416 14.007 2.138 40.681-29.904 88.955-45.71 139.606-45.71 63.027 0 122.282 24.544 166.849 69.112 44.568 44.567 69.112 103.822 69.112 166.849s-24.544 122.282-69.112 166.849c-44.567 44.569-103.822 69.113-166.849 69.113s-122.282-24.544-166.849-69.112c-44.568-44.567-69.112-103.822-69.112-166.849 0-45.17 12.799-89.064 37.015-126.934 2.981-4.662 1.618-10.858-3.044-13.839-4.661-2.981-10.857-1.618-13.839 3.044-26.28 41.099-40.171 88.726-40.171 137.729 0 68.38 26.629 132.667 74.98 181.02 48.353 48.351 112.64 74.98 181.02 74.98s132.667-26.629 181.02-74.98c48.351-48.353 74.98-112.64 74.98-181.02s-26.629-132.667-74.98-181.02z"/><path d="m359.739 191.995c16.574 0 30.059-13.484 30.059-30.059s-13.484-30.059-30.059-30.059h-80.372c-9.794 0-18.102 7.007-19.752 16.66l-16.232 94.902c-2.4 14.031 4.978 27.939 17.941 33.82 10.438 4.736 22.568 3.431 31.656-3.404 4.359-3.278 9.556-5.011 15.029-5.011 7.011 0 13.51 2.823 18.298 7.951 4.783 5.122 7.152 11.82 6.67 18.863-.849 12.398-10.841 22.366-23.245 23.188-5.271.348-10.407-.914-14.844-3.654-10.861-6.704-24.39-6.167-34.468 1.366-8.006 5.986-12.56 15.519-12.18 25.501.382 10.043 5.688 19.263 14.193 24.665 13.809 8.771 29.768 13.398 46.192 13.398.193 0 .387 0 .58-.002 22.423-.149 43.656-8.959 59.788-24.807 16.137-15.852 25.317-36.926 25.85-59.341.558-23.45-8.146-45.593-24.51-62.352-15.787-16.167-36.736-25.329-59.224-25.96l2.873-15.665zm-68.036 33.138c2.197 2.321 5.373 3.454 8.539 3.053 2.723-.346 5.542-.521 8.377-.521 17.985 0 34.81 7.087 47.376 19.956 12.562 12.864 19.243 29.866 18.815 47.875-.842 35.378-30.332 64.351-65.738 64.586-12.75.089-25.182-3.467-35.895-10.272-2.988-1.898-4.778-5-4.912-8.512-.131-3.45 1.383-6.617 4.154-8.689 1.811-1.354 3.965-2.035 6.155-2.035 1.975 0 3.979.554 5.786 1.67 8.006 4.943 17.235 7.225 26.696 6.597 22.364-1.481 40.383-19.457 41.913-41.815.865-12.642-3.402-24.684-12.016-33.908-8.495-9.096-20.502-14.313-32.944-14.313-9.853 0-19.214 3.124-27.074 9.035-3.228 2.429-7.569 2.877-11.331 1.171-4.674-2.121-7.334-7.135-6.469-12.194l16.232-94.901h80.372c5.525 0 10.02 4.495 10.02 10.02s-4.495 10.02-10.02 10.02h-49.931c-7.256 0-13.473 5.18-14.783 12.318l-5.9 32.165c-.577 3.143.381 6.373 2.578 8.694z"/><path d="m179.119 380.122c17.424 0 31.6-14.176 31.6-31.6v-196.183c0-11.282-9.179-20.461-20.461-20.461h-43.343c-16.422 0-29.782 13.36-29.782 29.782s13.36 29.782 29.782 29.782h.605v157.081c0 17.424 14.175 31.599 31.599 31.599zm-32.205-208.72c-5.372 0-9.743-4.37-9.743-9.743 0-5.372 4.37-9.743 9.743-9.743h43.343c.233 0 .422.189.422.422v196.183c0 6.375-5.186 11.561-11.561 11.561s-11.561-5.186-11.561-11.561v-167.099c0-5.534-4.486-10.02-10.02-10.02z"/></g></svg>