<?xml version="1.0" encoding="iso-8859-1"?>
<!-- Generator: Adobe Illustrator 19.0.0, SVG Export Plug-In . SVG Version: 6.00 Build 0)  -->
<svg version="1.1" id="Layer_1" xmlns="http://www.w3.org/2000/svg" xmlns:xlink="http://www.w3.org/1999/xlink" x="0px" y="0px"
	 viewBox="0 0 512 512" style="enable-background:new 0 0 512 512;" xml:space="preserve">
<g>
	<g>
		<path d="M454.554,129.557h-84.188C364.091,72.001,315.198,27.059,256,27.059S147.909,72.001,141.634,129.557H57.446
			C25.77,129.557,0,155.322,0,186.99v160.119c0,6.935,5.622,12.556,12.556,12.556c6.935,0,12.556-5.621,12.556-12.556v-63.514
			c12.317,11.92,28.223,19.127,45.58,19.127h144.273v2.197c0,20.771,16.898,37.669,37.669,37.669h6.73
			c20.771,0,37.669-16.898,37.669-37.669v-2.197h144.273c17.357,0,33.263-7.207,45.58-19.127v63.514
			c0,6.935,5.621,12.556,12.556,12.556S512,354.044,512,347.109V186.99C512,155.322,486.229,129.557,454.554,129.557z M256,52.172
			c45.331,0,82.916,33.716,89.046,77.385H166.954C173.083,85.888,210.669,52.172,256,52.172z M271.922,304.92
			c0,6.924-5.633,12.556-12.556,12.556h-6.73c-6.924,0-12.556-5.633-12.556-12.556v-29.508c0-6.924,5.633-12.556,12.556-12.556h6.73
			c6.924,0,12.556,5.633,12.556,12.556V304.92z M486.887,221.834c0,30.754-20.447,55.776-45.58,55.776H297.034v-2.197
			c0-20.771-16.898-37.669-37.669-37.669h-6.73c-20.771,0-37.669,16.898-37.669,37.669v2.197H70.693
			c-25.133,0-45.58-25.021-45.58-55.776V186.99c0-17.821,14.504-32.32,32.333-32.32h397.109c17.829,0,32.333,14.499,32.333,32.32
			V221.834z"/>
	</g>
</g>
<g>
	<g>
		<path d="M499.444,382.958c-45.054,0-82.414,33.487-88.54,76.87H101.097c-6.126-43.384-43.487-76.87-88.54-76.87
			C5.622,382.958,0,388.579,0,395.514v31.994c0,31.669,25.77,57.433,57.446,57.433h397.109c31.676,0,57.446-25.765,57.446-57.433
			v-31.994C512,388.579,506.378,382.958,499.444,382.958z M57.446,459.829c-17.829-0.001-32.333-14.5-32.333-32.321V409.31
			c25.414,5.049,45.479,25.11,50.531,50.519H57.446z M486.887,427.507c0,17.823-14.505,32.321-32.333,32.321h-18.198
			c5.051-25.409,25.117-45.469,50.531-50.519V427.507z"/>
	</g>
</g>
<g>
</g>
<g>
</g>
<g>
</g>
<g>
</g>
<g>
</g>
<g>
</g>
<g>
</g>
<g>
</g>
<g>
</g>
<g>
</g>
<g>
</g>
<g>
</g>
<g>
</g>
<g>
</g>
<g>
</g>
</svg>
