<svg id="Layer_1" viewBox="0 0 512 512" xmlns="http://www.w3.org/2000/svg" data-name="Layer 1"><path d="m438.432 381.11v-82.517c0-.073 0-.146-.004-.219-1.159-31.771-16.369-59.665-43.987-80.668-20.976-15.951-48.449-27.61-80.115-34.127 24.804-18.068 40.959-47.328 40.959-80.295 0-54.746-44.539-99.285-99.285-99.285s-99.286 44.539-99.286 99.285c0 32.967 16.155 62.227 40.959 80.295-31.666 6.516-59.14 18.175-80.116 34.127-27.618 21.002-42.828 48.896-43.987 80.668-.002.073-.004.146-.004.219v82.517c0 3.313 2.687 6 6 6h49.688c3.144 67.191 58.789 120.89 126.745 120.89s123.6-53.698 126.744-120.89h49.688c3.313 0 6-2.687 6-6zm-269.717-277.825c0-48.129 39.156-87.285 87.286-87.285s87.285 39.156 87.285 87.285-39.156 87.286-87.285 87.286-87.286-39.156-87.286-87.286zm87.285 392.715c-63.351 0-114.89-51.539-114.89-114.89s51.54-114.89 114.89-114.89 114.89 51.539 114.89 114.89-51.539 114.89-114.89 114.89zm170.432-120.89h-43.688c-3.144-67.191-58.789-120.89-126.744-120.89s-123.601 53.698-126.745 120.89h-43.688v-76.406c2.403-63.941 67.246-96.468 127.81-105.759 12.922 6.168 27.376 9.626 42.623 9.626s29.701-3.458 42.623-9.626c60.563 9.292 125.405 41.82 127.809 105.759zm-118.308-33.357h-24.97c-.819 0-1.383-.276-1.884-.925-.501-.647-.628-1.263-.423-2.056l6.215-23.995c2.937-10.957-3.589-22.261-14.55-25.198l-1.476-.396c-10.811-2.892-22.089 3.528-25.136 14.324l-8.766 31.057c-1.347 4.77-3.292 7.188-5.784 7.188h-39.672c-3.313 0-6 2.687-6 6v97.58c0 3.313 2.687 6 6 6h116.447c10.034 0 18.198-8.163 18.198-18.197 0-4.525-1.67-8.84-4.713-12.197 3.042-3.358 4.713-7.672 4.713-12.198s-1.67-8.838-4.712-12.197c3.042-3.358 4.712-7.672 4.712-12.197s-1.67-8.841-4.713-12.198c3.042-3.358 4.713-7.672 4.713-12.197 0-10.034-8.164-18.197-18.198-18.197zm-93.182 97.58h-17.265v-85.58h17.265zm84.3-61.186h11.886c.418.685.907 1.338 1.482 1.942 1.104 1.162 1.712 2.673 1.712 4.256s-.608 3.094-1.712 4.256c-.574.604-1.063 1.257-1.482 1.941h-11.886c-3.313 0-6 2.687-6 6s2.687 6 6 6h11.886c.418.684.907 1.337 1.481 1.94 1.104 1.163 1.713 2.675 1.713 4.257s-.608 3.094-1.713 4.257c-.574.604-1.063 1.257-1.481 1.941h-11.886c-3.313 0-6 2.687-6 6s2.687 6 6 6h11.887c.418.684.907 1.337 1.48 1.94 1.104 1.163 1.713 2.675 1.713 4.257 0 3.417-2.78 6.197-6.198 6.197h-81.182v-85.58h4.407c4.794 0 13.42-2.069 17.333-15.929l8.766-31.057c1.273-4.513 5.976-7.2 10.484-5.992l1.476.395c4.567 1.225 7.287 5.936 6.05 10.551l-6.228 24.044c-1.14 4.405-.234 8.812 2.55 12.408 2.785 3.599 6.824 5.58 11.374 5.58h24.97c3.417 0 6.198 2.78 6.198 6.197 0 1.582-.608 3.094-1.713 4.257-.573.604-1.062 1.257-1.48 1.94h-11.886c-3.313 0-6 2.687-6 6s2.687 6 6 6zm194.207 55.784-25.128-1.361-9.06-23.477c-1.675-4.343-5.764-7.148-10.415-7.148h-.005c-4.654 0-8.744 2.806-10.419 7.148l-9.061 23.477-25.128 1.361c-4.649.253-8.581 3.276-10.017 7.7-1.439 4.426-.035 9.184 3.578 12.12l19.529 15.87-6.472 24.321c-1.195 4.497.465 9.171 4.229 11.904 1.968 1.431 4.262 2.15 6.562 2.15 2.101 0 4.205-.601 6.07-1.808l21.13-13.669 21.127 13.668c3.907 2.528 8.865 2.396 12.634-.342 3.765-2.736 5.424-7.41 4.227-11.907l-6.47-24.318 19.531-15.872c3.61-2.937 5.014-7.693 3.576-12.115-1.437-4.427-5.369-7.45-10.019-7.703zm-23.669 28.826c-1.833 1.489-2.621 3.916-2.014 6.199l6.913 25.987-22.578-14.606c-1.982-1.283-4.535-1.281-6.518 0l-22.581 14.607 6.915-25.988c.607-2.283-.181-4.71-2.014-6.199l-20.87-16.96 26.853-1.455c2.358-.128 4.423-1.627 5.273-3.831l9.682-25.088 9.682 25.088c.851 2.203 2.914 3.703 5.273 3.831l26.854 1.455zm-362.015-28.826-25.128-1.361-9.06-23.478c-1.676-4.343-5.765-7.147-10.415-7.147h-.005c-4.654 0-8.744 2.806-10.42 7.147l-9.06 23.478-25.128 1.361c-4.648.252-8.58 3.275-10.017 7.701-1.438 4.426-.034 9.182 3.578 12.119l19.529 15.87-6.47 24.319c-1.196 4.498.464 9.171 4.228 11.906 1.968 1.431 4.262 2.15 6.562 2.15 2.1 0 4.206-.601 6.07-1.808l21.13-13.669 21.127 13.668c3.908 2.53 8.868 2.396 12.633-.342 3.765-2.735 5.425-7.409 4.228-11.907l-6.47-24.318 19.529-15.871c3.612-2.936 5.016-7.693 3.578-12.117-1.438-4.427-5.37-7.45-10.018-7.702zm-23.669 28.826c-1.833 1.489-2.622 3.916-2.014 6.199l6.915 25.987-22.579-14.606c-1.982-1.282-4.534-1.28-6.518 0l-22.58 14.606 6.915-25.987c.607-2.283-.181-4.71-2.014-6.199l-20.87-16.96 26.854-1.455c2.358-.128 4.422-1.628 5.273-3.831l9.682-25.09 9.682 25.09c.851 2.203 2.915 3.703 5.273 3.831l26.854 1.455-20.87 16.96zm313.699-312.408 19.529 15.87-6.472 24.321c-1.195 4.497.465 9.171 4.229 11.904 1.968 1.431 4.262 2.15 6.562 2.15 2.101 0 4.205-.601 6.07-1.808l21.13-13.669 21.127 13.668c3.907 2.527 8.865 2.395 12.634-.342 3.765-2.736 5.424-7.41 4.227-11.907l-6.47-24.318 19.531-15.872c3.61-2.937 5.014-7.693 3.576-12.116-1.438-4.427-5.369-7.449-10.019-7.702l-25.128-1.361-9.06-23.477c-1.675-4.343-5.765-7.149-10.42-7.149s-8.744 2.807-10.419 7.149l-9.061 23.477-25.128 1.361c-4.648.253-8.581 3.275-10.017 7.7-1.438 4.427-.035 9.184 3.578 12.12zm36.092-9.409c2.358-.128 4.423-1.627 5.273-3.831l9.682-25.088 9.682 25.088c.851 2.203 2.914 3.703 5.273 3.831l26.854 1.455-20.87 16.96c-1.833 1.489-2.621 3.916-2.014 6.199l6.913 25.987-22.578-14.606c-1.982-1.283-4.535-1.281-6.518 0l-22.581 14.607 6.915-25.988c.607-2.283-.181-4.71-2.014-6.199l-20.87-16.96zm-421.776 9.409 19.529 15.87-6.47 24.319c-1.196 4.498.464 9.171 4.228 11.906 1.968 1.431 4.262 2.15 6.562 2.15 2.1 0 4.206-.601 6.07-1.808l21.13-13.669 21.127 13.668c3.908 2.53 8.868 2.396 12.633-.342 3.765-2.735 5.425-7.409 4.228-11.907l-6.47-24.318 19.529-15.871c3.612-2.936 5.016-7.692 3.577-12.119-1.438-4.425-5.37-7.448-10.018-7.7l-25.128-1.361-9.06-23.478c-1.676-4.343-5.766-7.148-10.42-7.148s-8.744 2.806-10.42 7.148l-9.06 23.478-25.128 1.361c-4.647.252-8.579 3.275-10.018 7.701-1.438 4.426-.033 9.183 3.578 12.119zm36.093-9.409c2.358-.128 4.422-1.628 5.273-3.831l9.682-25.09 9.682 25.09c.851 2.203 2.915 3.703 5.273 3.831l26.854 1.455-20.87 16.96c-1.833 1.489-2.622 3.916-2.014 6.199l6.915 25.987-22.579-14.606c-1.982-1.282-4.534-1.28-6.518 0l-22.58 14.606 6.915-25.987c.607-2.283-.181-4.71-2.014-6.199l-20.87-16.96 26.854-1.455z"/></svg>